# Blender v2.82 (sub 7) OBJ File: ''
# www.blender.org
mtllib Belkin_Art_Gallery.mtl
o Belkin_Art_Gallery_4_Mesh.001
v -0.025308 0.002622 0.010868
v 0.025308 0.002622 0.010868
v 0.025308 0.006170 0.005065
v -0.025308 0.006170 0.005065
v -0.025308 0.001003 0.002546
v 0.025308 0.001003 0.002546
v 0.025308 -0.007544 0.002546
v -0.025308 -0.007544 0.002546
v 0.025308 -0.007544 0.010868
v 0.025308 -0.007544 0.004118
v 0.025308 0.001003 0.004118
v 0.025308 0.001003 0.010868
v -0.025308 -0.007544 0.004118
v -0.025308 -0.007544 0.010868
v -0.025308 0.001003 0.010868
v -0.025308 0.001003 0.004118
v 0.025308 0.005193 0.003476
v -0.025308 0.005193 0.003476
v 0.025308 0.003448 0.002792
v -0.025308 0.003448 0.002792
v -0.000998 0.001981 0.002988
v 0.025114 0.001981 0.002988
v 0.025114 0.003808 -0.013769
v -0.000998 0.003808 -0.013769
v -0.000998 0.003802 -0.013716
v -0.000998 0.001004 -0.011782
v 0.025114 0.001004 -0.011782
v 0.025114 -0.005735 -0.011782
v -0.000998 -0.005735 -0.011782
v 0.025114 -0.005736 0.002988
v 0.025114 0.001003 0.002988
v -0.000998 -0.005736 0.002988
v -0.000998 0.001003 0.002988
v 0.025114 0.003562 -0.013871
v -0.000998 0.003562 -0.013871
v -0.010943 0.000780 0.002722
v -0.001232 0.000780 0.002722
v -0.001232 0.000781 -0.004744
v -0.010943 0.000781 -0.004744
v -0.001232 0.000568 -0.004744
v -0.010943 0.000568 -0.004744
v -0.001232 0.000567 0.002722
v -0.010943 0.000567 0.002722
v -0.011483 -0.000626 0.002660
v -0.000426 -0.000626 0.002660
v -0.000426 -0.000625 -0.001619
v -0.011483 -0.000625 -0.001619
v -0.000426 -0.006207 -0.001619
v -0.011483 -0.006207 -0.001619
v -0.025184 -0.006207 -0.005119
v -0.025184 -0.006208 0.002660
v -0.025184 -0.000626 0.002660
v -0.025184 -0.000625 -0.005119
v -0.011483 0.007735 0.002660
v -0.011483 0.007736 -0.001619
v -0.025184 0.007736 -0.005119
v -0.025184 0.007735 0.002660
v -0.024296 0.001003 0.013871
v 0.024617 0.001003 0.013871
v 0.024617 0.001003 0.010551
v -0.024296 0.001003 0.010551
v 0.024617 -0.007736 0.012589
v 0.024617 -0.007736 0.010551
v -0.024296 -0.007736 0.010551
v -0.024296 -0.007736 0.012589
vt 0.715670 0.439856
vt 0.031656 0.439857
vt 0.031656 0.336421
vt 0.715670 0.336421
vt 0.715670 0.248857
vt 0.031656 0.248857
vt 0.031656 0.133351
vt 0.715670 0.133351
vt 0.550079 0.460454
vt 0.709982 0.460454
vt 0.709982 0.633707
vt 0.550079 0.633707
vt 0.802022 0.460667
vt 0.962382 0.460667
vt 0.962382 0.634416
vt 0.802022 0.634416
vt 0.747227 0.460454
vt 0.747227 0.633707
vt 0.031656 0.308069
vt 0.715670 0.308069
vt 0.764670 0.460667
vt 0.764670 0.634416
vt 0.687556 0.738436
vt 0.550079 0.666527
vt 0.962382 0.667330
vt 0.824512 0.739445
vt 0.725196 0.718643
vt 0.741408 0.683255
vt 0.715670 0.282118
vt 0.031655 0.282118
vt 0.786765 0.719595
vt 0.770506 0.684106
vt 0.132752 0.753415
vt 0.445223 0.751252
vt 0.446890 0.986652
vt 0.134335 0.988849
vt 0.134329 0.988107
vt 0.985908 0.852884
vt 0.568828 0.852884
vt 0.568828 0.749527
vt 0.985908 0.749527
vt 0.537115 0.742019
vt 0.557757 0.947591
vt 0.477506 0.955651
vt 0.456867 0.750082
vt 0.022934 0.951279
vt 0.040749 0.745434
vt 0.121094 0.752404
vt 0.103292 0.958250
vt 0.449964 0.987783
vt 0.985908 0.907119
vt 0.568828 0.907119
vt 0.446913 0.989927
vt 0.134358 0.992124
vt 0.131276 0.990019
vt 0.988081 0.961395
vt 0.882270 0.961395
vt 0.882270 0.866315
vt 0.988081 0.866314
vt 0.882270 0.864002
vt 0.988081 0.864002
vt 0.879958 0.961395
vt 0.879958 0.866314
vt 0.990393 0.866315
vt 0.990393 0.961395
vt 0.988081 0.768922
vt 0.882270 0.768922
vt 0.910473 0.284800
vt 0.910474 0.158011
vt 0.967829 0.158011
vt 0.967829 0.284800
vt 0.199919 0.528917
vt 0.054747 0.529228
vt 0.054590 0.455942
vt 0.199762 0.455631
vt 0.387503 0.455228
vt 0.506873 0.454972
vt 0.507030 0.528258
vt 0.387660 0.528514
vt 0.181506 0.701664
vt 0.200154 0.638696
vt 0.387896 0.638293
vt 0.353998 0.752749
vt 0.967829 0.380678
vt 0.910473 0.380678
vt 0.507266 0.638037
vt 0.855800 0.101163
vt 0.145051 0.104407
vt 0.144794 0.048015
vt 0.855543 0.044771
vt 0.017960 0.083205
vt 0.017802 0.048595
vt 0.982535 0.044191
vt 0.982692 0.078802
vn 0.0000 0.8532 0.5216
vn 0.0001 0.9565 0.2917
vn 0.0000 0.9565 0.2917
vn -0.0000 0.0179 -0.9998
vn 0.0000 0.0000 -1.0000
vn 1.0000 0.0000 0.0000
vn -1.0000 0.0000 0.0000
vn 0.0000 0.6531 -0.7573
vn 0.0000 0.1001 -0.9950
vn 0.0000 0.3648 -0.9311
vn -0.0000 0.9941 0.1083
vn 0.0000 -0.2141 -0.9768
vn -0.0003 -0.2141 -0.9768
vn 0.0000 -0.6325 -0.7745
vn -0.0000 0.3843 -0.9232
vn 0.0000 1.0000 0.0000
vn 0.0000 -1.0000 -0.0000
vn 0.1941 0.0000 -0.9810
vn 0.1434 0.0000 -0.9897
vn 0.2475 0.0000 -0.9689
usemtl lambert27.001
s 1
f 1/1/1 2/2/1 3/3/2 4/4/3
f 5/5/4 6/6/4 7/7/5 8/8/5
f 9/9/6 10/10/6 11/11/6 12/12/6
f 13/13/7 14/14/7 15/15/7 16/16/7
f 11/11/6 10/10/6 7/17/6 6/18/6
f 4/4/3 3/3/2 17/19/8 18/20/8
f 8/21/7 13/13/7 16/16/7 5/22/7
f 12/12/6 11/11/6 3/23/6 2/24/6
f 16/16/7 15/15/7 1/25/7 4/26/7
f 17/27/6 11/11/6 6/18/6 19/28/6
f 6/6/4 5/5/4 20/29/9 19/30/9
f 16/16/7 4/26/7 18/31/7
f 18/20/8 17/19/8 19/30/10 20/29/10
f 16/16/7 18/31/7 20/32/7 5/22/7
f 17/27/6 3/23/6 11/11/6
f 21/33/11 22/34/11 23/35/11 24/36/11 25/37/11
f 26/38/12 27/39/13 28/40/5 29/41/5
f 30/42/6 28/43/6 27/44/6 31/45/6
f 29/46/7 32/47/7 33/48/7 26/49/7
f 23/35/6 27/44/6 34/50/6
f 27/39/13 26/38/12 35/51/14 34/52/14
f 26/49/7 33/48/7 21/33/7 25/37/7
f 23/35/15 34/53/15 35/54/15 24/36/15
f 31/45/6 27/44/6 23/35/6 22/34/6
f 26/49/7 25/37/7 24/36/7 35/55/7
f 36/56/16 37/57/16 38/58/16 39/59/16
f 39/59/5 38/58/5 40/60/5 41/61/5
f 42/62/6 40/63/6 38/58/6 37/57/6
f 41/64/7 43/65/7 36/56/7 39/59/7
f 43/66/17 41/61/17 40/60/17 42/67/17
f 44/68/16 45/69/16 46/70/16 47/71/16
f 47/72/18 46/73/5 48/74/5 49/75/19
f 50/76/7 51/77/7 52/78/7 53/79/7
f 54/80/16 55/81/16 56/82/16 57/83/16
f 47/72/18 49/75/19 50/76/20 53/79/20
f 44/68/6 47/71/6 55/84/6 54/85/6
f 47/72/18 53/79/20 56/82/20 55/81/20
f 53/79/7 52/78/7 57/86/7 56/82/7
f 58/87/16 59/88/16 60/89/16 61/90/16
f 62/91/6 63/92/6 60/89/6 59/88/6
f 64/93/7 65/94/7 58/87/7 61/90/7
