# Blender v2.82 (sub 7) OBJ File: ''
# www.blender.org
mtllib Chan_Center.mtl
o Chan_Center_1_Mesh.001
v -0.001146 -0.005614 0.012719
v 0.005783 -0.005586 0.012724
v 0.005738 0.005688 0.012710
v -0.001189 0.005660 0.012707
v 0.010968 -0.005570 0.009214
v 0.010924 0.005704 0.009201
v 0.013390 -0.005567 0.002258
v 0.013347 0.005706 0.002245
v 0.014389 -0.005575 -0.007293
v 0.014344 0.005699 -0.007306
v 0.011336 -0.005598 -0.017292
v 0.011292 0.005675 -0.017305
v 0.006612 -0.005628 -0.027121
v 0.006568 0.005645 -0.027134
v -0.000734 -0.005665 -0.034227
v -0.000778 0.005608 -0.034240
v -0.010169 -0.005706 -0.037159
v -0.010213 0.005568 -0.037172
v -0.018279 -0.005691 0.002598
v -0.010468 -0.005654 0.009410
v -0.010512 0.005621 0.009398
v -0.018323 0.005582 0.002586
v -0.028903 0.005520 -0.015468
v -0.027818 0.005513 -0.025380
v -0.018669 0.005536 -0.036516
v -0.023854 0.005519 -0.033006
v -0.025397 0.005545 -0.005757
v 0.008993 -0.001624 0.026930
v 0.022847 -0.001624 0.018077
v 0.010752 -0.001624 0.008560
v 0.005438 -0.001624 0.011957
v 0.022847 -0.005253 0.018077
v 0.010752 -0.005253 0.008560
v 0.028903 -0.005297 0.027471
v 0.028308 -0.005297 0.023545
v 0.028308 -0.001084 0.023545
v 0.028903 -0.001084 0.027471
v 0.026255 -0.005297 0.020146
v 0.026255 -0.001084 0.020146
v 0.023058 -0.005297 0.017790
v 0.023058 -0.001084 0.017790
v 0.019203 -0.005297 0.016838
v 0.019203 -0.001084 0.016838
v 0.011217 -0.005297 0.033863
v 0.014414 -0.005297 0.036218
v 0.014414 -0.001084 0.036218
v 0.011217 -0.001084 0.033863
v 0.018269 -0.005297 0.037171
v 0.018269 -0.001084 0.037171
v 0.022196 -0.005297 0.036576
v 0.022196 -0.001084 0.036576
v 0.025595 -0.005297 0.034523
v 0.025595 -0.001084 0.034523
v 0.027950 -0.005297 0.031326
v 0.027950 -0.001084 0.031326
v 0.009523 -0.001084 0.022682
v 0.008570 -0.001084 0.026537
v 0.009165 -0.001084 0.030463
v 0.011878 -0.001084 0.019485
v 0.015277 -0.001084 0.017433
vt 0.733200 0.800538
vt 0.645894 0.800538
vt 0.645894 0.660868
vt 0.733200 0.660868
vt 0.568321 0.800538
vt 0.568321 0.660868
vt 0.479298 0.800538
vt 0.479298 0.660868
vt 0.357590 0.800538
vt 0.357590 0.660868
vt 0.985599 0.973109
vt 0.844996 0.973109
vt 0.844996 0.821483
vt 0.985599 0.821483
vt 0.698326 0.973109
vt 0.698326 0.821483
vt 0.560857 0.973109
vt 0.560857 0.821483
vt 0.427978 0.973109
vt 0.427978 0.821483
vt 0.981872 0.800538
vt 0.853466 0.800538
vt 0.853466 0.660868
vt 0.981872 0.660868
vt 0.255196 0.396050
vt 0.029281 0.397745
vt 0.070452 0.346145
vt 0.212018 0.345312
vt 0.119666 0.318061
vt 0.161501 0.318019
vt 0.272236 0.462899
vt 0.015311 0.464592
vt 0.264411 0.535557
vt 0.026057 0.536658
vt 0.246768 0.602522
vt 0.046681 0.603393
vt 0.088260 0.654182
vt 0.207395 0.654064
vt 0.169342 0.681793
vt 0.127507 0.681834
vt 0.029811 0.028100
vt 0.299236 0.024165
vt 0.219980 0.284190
vt 0.116627 0.285700
vt 0.356131 0.041507
vt 0.276875 0.301532
vt 0.828266 0.432340
vt 0.702097 0.432340
vt 0.702097 0.298484
vt 0.828266 0.298484
vt 0.575929 0.432340
vt 0.575929 0.298484
vt 0.449762 0.432340
vt 0.449762 0.298484
vt 0.323594 0.432340
vt 0.323594 0.298484
vt 0.980408 0.607364
vt 0.850835 0.607364
vt 0.850835 0.469896
vt 0.980408 0.469896
vt 0.721262 0.607364
vt 0.721262 0.469896
vt 0.591688 0.607364
vt 0.591688 0.469896
vt 0.462114 0.607364
vt 0.462114 0.469896
vt 0.332541 0.607364
vt 0.332541 0.469896
vt 0.954433 0.432340
vt 0.954433 0.298484
vt 0.211647 0.949258
vt 0.209957 0.736885
vt 0.245472 0.771840
vt 0.246601 0.913743
vt 0.264908 0.817725
vt 0.265304 0.867555
vt 0.165761 0.968693
vt 0.163769 0.718182
vt 0.115931 0.969090
vt 0.113939 0.718578
vt 0.069743 0.950387
vt 0.068054 0.738014
vt 0.033099 0.773529
vt 0.034228 0.915432
vt 0.014793 0.869547
vt 0.014396 0.819717
vn -0.1998 0.0003 0.9798
vn 0.2780 0.0022 0.9606
vn -0.1998 0.0004 0.9798
vn 0.8088 0.0038 0.5880
vn 0.9792 0.0040 0.2029
vn 0.9945 0.0038 -0.1045
vn 0.9945 0.0037 -0.1045
vn 0.9310 0.0032 -0.3650
vn 0.8143 0.0025 -0.5804
vn 0.5133 0.0010 -0.8582
vn 0.2968 0.0001 -0.9550
vn -0.6573 -0.0017 0.7537
vn -0.5086 -0.0010 0.8610
vn -0.0039 1.0000 -0.0012
vn -0.0039 1.0000 -0.0011
vn -0.0040 1.0000 -0.0012
vn -0.0000 1.0000 0.0000
vn 0.6184 0.0000 -0.7859
vn 0.9989 0.0000 0.0460
vn 0.9404 0.0000 -0.3400
vn 0.7388 0.0000 -0.6739
vn 0.4247 0.0000 -0.9053
vn 0.2397 0.0000 -0.9708
vn -0.5931 0.0000 0.8051
vn -0.4247 0.0000 0.9053
vn -0.0460 0.0000 0.9989
vn 0.3400 0.0000 0.9404
vn 0.6740 0.0000 0.7387
vn 0.9053 0.0000 0.4247
usemtl Chan_Centre_Texture.001
s 1
f 1/1/1 2/2/2 3/3/2 4/4/3
f 2/2/2 5/5/4 6/6/4 3/3/2
f 5/5/4 7/7/5 8/8/5 6/6/4
f 7/7/5 9/9/6 10/10/7 8/8/5
f 9/11/6 11/12/8 12/13/8 10/14/7
f 11/12/8 13/15/9 14/16/9 12/13/8
f 13/15/9 15/17/10 16/18/10 14/16/9
f 15/17/10 17/19/11 18/20/11 16/18/10
f 19/21/12 20/22/13 21/23/13 22/24/12
f 20/22/13 1/1/1 4/4/3 21/23/13
f 23/25/14 16/26/14 18/27/15 24/28/15
f 24/28/15 18/27/15 25/29/16 26/30/16
f 27/31/14 14/32/14 16/26/14 23/25/14
f 22/33/14 12/34/14 14/32/14 27/31/14
f 21/35/14 10/36/14 12/34/14 22/33/14
f 8/37/16 4/38/16 3/39/16 6/40/16
f 21/35/14 4/38/16 8/37/16 10/36/14
f 28/41/17 29/42/17 30/43/17 31/44/17
f 32/45/18 33/46/18 30/43/18 29/42/18
f 34/47/19 35/48/20 36/49/20 37/50/19
f 35/48/20 38/51/21 39/52/21 36/49/20
f 38/51/21 40/53/22 41/54/22 39/52/21
f 40/53/22 42/55/23 43/56/23 41/54/22
f 44/57/24 45/58/25 46/59/25 47/60/24
f 45/58/25 48/61/26 49/62/26 46/59/25
f 48/61/26 50/63/27 51/64/27 49/62/26
f 50/63/27 52/65/28 53/66/28 51/64/27
f 52/65/28 54/67/29 55/68/29 53/66/28
f 54/69/29 34/47/19 37/50/19 55/70/29
f 49/71/17 56/72/17 57/73/17 46/74/17
f 46/74/17 57/73/17 58/75/17 47/76/17
f 51/77/17 59/78/17 56/72/17 49/71/17
f 53/79/17 60/80/17 59/78/17 51/77/17
f 55/81/17 43/82/17 60/80/17 53/79/17
f 41/83/17 37/84/17 36/85/17 39/86/17
f 55/81/17 37/84/17 41/83/17 43/82/17
