# Blender v2.82 (sub 7) OBJ File: 'ubc_buildings - Copy (2).blend'
# www.blender.org
mtllib forestry.mtl
o Forestry_1_Mesh.001
v 0.444369 0.035842 -0.023691
v 0.444369 0.035842 -0.005482
v 0.447528 0.035842 -0.006738
v 0.447528 0.035842 -0.024642
v 0.444369 0.031171 0.013218
v 0.444369 0.023152 0.013218
v 0.447528 0.023152 0.013218
v 0.447528 0.031171 0.013218
v 0.447528 0.023152 -0.024642
v 0.447528 0.031171 -0.024642
v 0.447528 0.031171 -0.006738
v 0.447528 0.023152 -0.006738
v 0.444369 0.031171 -0.005482
vt 0.474666 0.958854
vt 0.319818 0.958854
vt 0.319818 0.931379
vt 0.474666 0.931379
vt 0.115441 0.958854
vt 0.046671 0.958854
vt 0.046671 0.931379
vt 0.115441 0.931379
vt 0.033794 0.879309
vt 0.033794 0.804399
vt 0.201040 0.804399
vt 0.201040 0.879309
vt 0.387604 0.804399
vt 0.387604 0.879309
vt 0.281199 0.931379
vt 0.281199 0.958854
vt 0.033794 0.761376
vt 0.201040 0.761376
vn 0.0000 1.0000 0.0000
vn 0.0000 -0.0000 1.0000
vn 1.0000 0.0000 0.0000
vn 0.3695 0.0000 0.9292
usemtl lambert30.001
s 1
f 1/1/1 2/2/1 3/3/1 4/4/1
f 5/5/2 6/6/2 7/7/2 8/8/2
f 9/9/3 10/10/3 11/11/3 12/12/3
f 8/13/3 7/14/3 12/12/3 11/11/3
f 5/5/1 8/8/1 11/15/1 13/16/1
f 10/10/3 4/17/3 3/18/3 11/11/3
f 11/15/4 3/3/4 2/2/4 13/16/4
o Forestry_2_Mesh.001
v 0.402158 0.024032 0.008484
v 0.398837 0.024032 0.008484
v 0.398837 0.031171 0.008484
v 0.402158 0.031171 0.008484
v 0.398837 0.031171 0.013729
v 0.402158 0.031171 0.013729
v 0.398837 0.024032 0.013729
v 0.402158 0.024032 0.013729
vt 0.540928 0.036770
vt 0.540928 0.096126
vt 0.397904 0.096126
vt 0.397904 0.036770
vt 0.338681 0.096126
vt 0.397904 0.189679
vt 0.338681 0.189679
vt 0.397904 0.248768
vt 0.540928 0.189679
vt 0.540928 0.248768
vn 0.0000 0.0000 -1.0000
vn 0.0000 1.0000 0.0000
vn 0.0000 -0.0000 1.0000
vn -1.0000 0.0000 0.0000
usemtl lambert30.001
s 1
f 14/19/5 15/20/5 16/21/5 17/22/5
f 17/23/6 16/21/6 18/24/6 19/25/6
f 19/26/7 18/24/7 20/27/7 21/28/7
f 15/20/8 20/27/8 18/24/8 16/21/8
o Forestry_3_Mesh.001
v 0.437481 0.031198 0.020323
v 0.409246 0.031198 0.020323
v 0.409246 0.031198 0.023811
v 0.437481 0.031198 0.023811
v 0.409246 0.022470 0.023811
v 0.437481 0.022470 0.023811
v 0.409246 0.022470 0.020323
v 0.437481 0.022470 0.020323
vt 0.944979 0.166435
vt 0.608526 0.166435
vt 0.608526 0.124878
vt 0.944979 0.124878
vt 0.608526 0.020875
vt 0.944979 0.020875
vt 0.566757 0.020875
vt 0.566757 0.124878
vt 0.986324 0.020875
vt 0.986324 0.124878
vn 0.0000 1.0000 0.0000
vn 0.0000 -0.0000 1.0000
vn -1.0000 0.0000 0.0000
vn 1.0000 0.0000 0.0000
usemtl lambert30.001
s 1
f 22/29/9 23/30/9 24/31/9 25/32/9
f 25/32/10 24/31/10 26/33/10 27/34/10
f 28/35/11 26/33/11 24/31/11 23/36/11
f 27/34/12 29/37/12 22/38/12 25/32/12
o Forestry_4_Mesh.001
v 0.402158 0.031171 -0.025446
v 0.398837 0.031171 -0.025446
v 0.398837 0.031171 -0.020001
v 0.402158 0.031171 -0.020001
v 0.402158 0.031171 0.001841
v 0.398837 0.031171 0.001841
v 0.398837 0.023152 0.001841
v 0.402158 0.023152 0.001841
v 0.398837 0.023152 -0.025446
v 0.398837 0.023152 -0.020001
v 0.398837 0.023152 -0.004847
v 0.398837 0.031171 -0.004847
v 0.402158 0.031171 -0.004847
v 0.398837 0.023152 -0.009483
v 0.398837 0.031171 -0.009483
v 0.402158 0.036950 -0.009483
v 0.398837 0.036950 -0.009483
v 0.398837 0.036950 -0.004847
v 0.402158 0.036950 -0.004847
v 0.398837 0.023152 -0.016045
v 0.398837 0.031171 -0.016045
v 0.402158 0.036950 -0.020001
v 0.398837 0.036950 -0.020001
v 0.398837 0.036950 -0.016045
v 0.402158 0.036950 -0.016045
v 0.402158 0.031171 -0.016045
v 0.402158 0.031171 -0.009483
vt 0.624965 0.650081
vt 0.624965 0.624529
vt 0.668736 0.624529
vt 0.668736 0.650081
vt 0.871182 0.624529
vt 0.844337 0.624529
vt 0.844337 0.560061
vt 0.871182 0.560061
vt 0.624965 0.560061
vt 0.668736 0.560061
vt 0.790565 0.560061
vt 0.790565 0.624529
vt 0.790565 0.652008
vt 0.844337 0.652008
vt 0.753293 0.560061
vt 0.753293 0.624529
vt 0.982022 0.710047
vt 0.948123 0.710047
vt 0.948123 0.662577
vt 0.982022 0.662577
vt 0.700546 0.560061
vt 0.700546 0.624529
vt 0.990496 0.610378
vt 0.952980 0.610378
vt 0.952980 0.565890
vt 0.990496 0.565890
vt 0.700546 0.650986
vt 0.753293 0.650986
vt 0.888950 0.710047
vt 0.888950 0.662577
vt 0.888950 0.628478
vt 0.948123 0.628478
vt 0.888004 0.610378
vt 0.888004 0.565890
vt 0.888004 0.528736
vt 0.952980 0.528736
vn 0.0000 1.0000 0.0000
vn 0.0000 -0.0000 1.0000
vn -1.0000 0.0000 0.0000
usemtl lambert30.001
s 1
f 30/39/13 31/40/13 32/41/13 33/42/13
f 34/43/14 35/44/14 36/45/14 37/46/14
f 38/47/15 39/48/15 32/41/15 31/40/15
f 40/49/15 36/45/15 35/44/15 41/50/15
f 42/51/13 41/50/13 35/44/13 34/52/13
f 43/53/15 40/49/15 41/50/15 44/54/15
f 45/55/13 46/56/13 47/57/13 48/58/13
f 39/48/15 49/59/15 50/60/15 32/41/15
f 51/61/13 52/62/13 53/63/13 54/64/13
f 49/59/15 43/53/15 44/54/15 50/60/15
f 55/65/13 50/60/13 44/54/13 56/66/13
f 44/67/15 41/68/15 47/57/15 46/56/15
f 41/68/14 42/69/14 48/70/14 47/57/14
f 32/71/15 50/72/15 53/63/15 52/62/15
f 50/72/14 55/73/14 54/74/14 53/63/14
o Forestry_5_Mesh.001
v 0.404818 0.031084 0.023658
v 0.403817 0.031084 0.022263
v 0.403474 0.031084 0.023658
v 0.403474 0.030225 0.023658
v 0.404818 0.030225 0.023658
v 0.407904 0.031084 0.023658
v 0.407904 0.030225 0.023658
v 0.409467 0.030225 0.023658
v 0.409467 0.031084 0.023658
v 0.409467 0.031084 0.022217
v 0.407904 0.031084 0.022217
v 0.409467 0.030225 0.022217
v 0.407904 0.030225 0.022217
v 0.407904 0.023440 0.022217
v 0.407904 0.023440 0.023658
v 0.409467 0.023440 0.022217
v 0.409467 0.023440 0.023658
v 0.400242 0.031084 0.015109
v 0.398946 0.031084 0.015109
v 0.398946 0.031084 0.018135
v 0.400268 0.031084 0.019141
v 0.400268 0.030225 0.019141
v 0.398946 0.030225 0.018135
v 0.398946 0.030225 0.015109
v 0.400242 0.030225 0.015109
v 0.400242 0.030225 0.013545
v 0.400242 0.031084 0.013545
v 0.398946 0.031084 0.013545
v 0.398946 0.030225 0.013545
v 0.398946 0.023440 0.015109
v 0.400242 0.023440 0.015109
v 0.398946 0.023440 0.013545
v 0.400242 0.023440 0.013545
v 0.402537 0.031084 0.023087
v 0.402537 0.030225 0.023087
v 0.398946 0.030225 0.019489
v 0.398946 0.031084 0.019489
v 0.399609 0.031084 0.020449
v 0.399609 0.030225 0.020449
v 0.403817 0.030225 0.022263
v 0.404818 0.023450 0.023658
v 0.403817 0.023450 0.022263
v 0.403474 0.023450 0.023658
v 0.402537 0.023450 0.023087
v 0.398946 0.023450 0.018135
v 0.398946 0.023450 0.019489
v 0.400268 0.023450 0.019141
v 0.399609 0.023450 0.020449
vt 0.744237 0.881507
vt 0.725233 0.867918
vt 0.744200 0.863214
vt 0.767169 0.863168
vt 0.767205 0.881461
vt 0.671732 0.748488
vt 0.695039 0.748488
vt 0.695039 0.770078
vt 0.671732 0.770078
vt 0.651809 0.706996
vt 0.671716 0.706996
vt 0.671716 0.728586
vt 0.651809 0.728586
vt 0.695039 0.706996
vt 0.695039 0.728586
vt 0.785619 0.728586
vt 0.785619 0.748488
vt 0.785619 0.706996
vt 0.785619 0.770078
vt 0.858396 0.727502
vt 0.858396 0.740203
vt 0.829058 0.740203
vt 0.819384 0.727502
vt 0.819268 0.769237
vt 0.829058 0.756568
vt 0.858396 0.756568
vt 0.858396 0.769237
vt 0.858396 0.785601
vt 0.819268 0.785601
vt 0.548004 0.894731
vt 0.548004 0.873700
vt 0.564809 0.873700
vt 0.564809 0.894731
vt 0.564809 0.910869
vt 0.548004 0.910869
vt 0.517274 0.873700
vt 0.534079 0.873700
vt 0.534079 0.894731
vt 0.517274 0.894731
vt 0.534079 0.791995
vt 0.548004 0.791995
vt 0.517274 0.791995
vt 0.564809 0.791995
vt 0.725557 0.857357
vt 0.744171 0.848297
vt 0.767139 0.848251
vt 0.980458 0.785489
vt 0.957591 0.785448
vt 0.957624 0.767121
vt 0.980491 0.767162
vt 0.998385 0.771904
vt 0.997911 0.760899
vt 0.980519 0.751359
vt 0.957652 0.751318
vt 0.920233 0.816430
vt 0.936400 0.816430
vt 0.936400 0.869258
vt 0.920233 0.869258
vt 0.955268 0.869258
vt 0.955268 0.816430
vt 0.885176 0.816430
vt 0.901307 0.816430
vt 0.901307 0.869258
vt 0.885176 0.869258
vt 0.626317 0.839830
vt 0.670131 0.839830
vt 0.670131 0.863777
vt 0.626317 0.863777
vt 0.670131 0.883778
vt 0.611601 0.883778
vt 0.670131 0.795652
vt 0.670131 0.819601
vt 0.612675 0.819601
vt 0.612675 0.795652
vt 0.767252 0.904823
vt 0.856315 0.881284
vt 0.856361 0.904646
vt 0.856279 0.862992
vt 0.767098 0.827550
vt 0.856208 0.827373
vt 0.856249 0.848074
vt 0.868875 0.785290
vt 0.868908 0.766963
vt 0.957551 0.807941
vt 0.868835 0.807783
vt 0.957687 0.731482
vt 0.868936 0.751160
vt 0.868972 0.731323
vn 0.0000 1.0000 0.0000
vn 0.0000 -0.0000 1.0000
vn 0.0000 0.0000 -1.0000
vn -0.0038 0.0000 -1.0000
vn -0.0082 -0.0000 -1.0000
vn -1.0000 0.0000 0.0000
vn 0.0000 -1.0000 0.0000
vn 1.0000 0.0000 -0.0064
vn 1.0000 0.0000 -0.0021
vn 1.0000 0.0000 -0.0046
vn 1.0000 0.0000 0.0000
vn -0.5204 0.0000 0.8539
vn -0.6389 0.0000 0.7693
vn -0.5862 -0.0000 0.8102
vn -0.7651 0.0000 0.6439
vn -0.7078 0.0000 0.7064
vn -0.8228 0.0000 0.5683
vn 0.6605 0.0000 -0.7508
vn -0.0113 0.0000 -0.9999
vn 0.8125 0.0000 -0.5830
vn -0.5413 0.0000 -0.8408
vn 0.6056 0.0000 -0.7958
vn 0.8931 0.0000 0.4499
usemtl lambert30.001
s 1
f 57/75/16 58/76/16 59/77/16
f 60/78/17 61/79/17 57/75/17 59/77/17
f 62/80/17 63/81/17 64/82/17 65/83/17
f 65/84/16 66/85/16 67/86/16 62/87/16
f 68/88/18 69/89/19 67/86/20 66/85/18
f 63/81/21 69/89/21 70/90/21 71/91/21
f 69/89/19 68/88/18 72/92/18 70/90/18
f 64/82/17 63/81/17 71/91/17 73/93/17
f 74/94/16 75/95/16 76/96/16 77/97/16
f 78/98/22 79/99/22 80/100/22 81/101/22
f 75/95/21 80/100/21 79/99/21 76/96/21
f 78/98/23 81/101/24 74/102/25 77/103/23
f 74/104/25 81/105/24 82/106/26 83/107/26
f 83/107/16 84/108/16 75/109/16 74/104/16
f 85/110/21 80/111/21 75/112/21 84/113/21
f 81/105/17 80/111/17 86/114/17 87/115/17
f 80/111/21 85/110/21 88/116/21 86/114/21
f 82/106/26 81/105/24 87/115/26 89/117/26
f 58/118/16 90/119/16 59/77/16
f 60/78/27 59/77/27 90/119/28 91/120/29
f 76/121/21 79/122/21 92/123/21 93/124/21
f 77/125/16 76/121/16 93/124/16
f 77/126/16 93/124/16 94/127/16
f 95/128/30 94/127/31 93/124/32 92/123/32
f 95/129/22 78/130/22 96/131/22 91/132/22
f 58/133/33 96/131/33 78/130/33 77/134/33
f 77/135/16 94/136/16 90/137/16 58/138/16
f 91/132/29 90/137/28 94/136/31 95/129/30
f 61/139/17 63/140/17 62/141/17 57/142/17
f 62/141/16 67/143/16 58/144/16 57/142/16
f 67/145/20 69/146/19 96/147/34 58/148/34
f 61/139/22 96/147/22 69/146/22 63/140/22
f 96/149/35 61/79/35 97/150/35 98/151/35
f 61/79/17 60/78/17 99/152/17 97/150/17
f 91/120/36 96/153/36 98/154/36 100/155/36
f 60/78/27 91/120/29 100/155/27 99/152/27
f 92/123/21 79/122/21 101/156/21 102/157/21
f 79/122/37 78/158/37 103/159/37 101/156/37
f 78/160/38 95/128/38 104/161/38 103/162/38
f 95/128/30 92/123/32 102/157/32 104/161/32
o Forestry_6_Mesh.001
v 0.434305 0.036750 -0.025504
v 0.428395 0.039504 -0.025504
v 0.428438 0.039520 0.004679
v 0.434296 0.036757 0.010919
v 0.408645 0.039536 0.004713
v 0.408645 0.036764 0.010919
v 0.408645 0.036945 0.004713
vt 0.319817 0.032714
vt 0.319817 0.082133
vt 0.078171 0.082133
vt 0.033115 0.032714
vt 0.078171 0.239826
vt 0.033115 0.239826
vt 0.078171 0.239826
vn 0.4247 0.9053 -0.0005
vn 0.0008 0.9139 0.4060
vn -1.0000 0.0000 0.0000
usemtl lambert30.001
s 1
f 105/163/39 106/164/39 107/165/39 108/166/39
f 107/165/40 109/167/40 110/168/40 108/166/40
f 111/169/41 110/168/41 109/167/41
o Forestry_7_Mesh.001
v 0.444434 0.037001 0.004970
v 0.444434 0.037001 -0.025480
v 0.440109 0.037001 -0.025480
v 0.440109 0.037001 0.004970
v 0.402117 0.036967 0.004971
v 0.402117 0.036967 -0.025496
v 0.402082 0.022814 -0.025480
v 0.402082 0.022814 0.004970
v 0.444434 0.022814 0.004970
v 0.444434 0.022814 -0.025480
v 0.444434 0.037001 0.015992
v 0.440109 0.037001 0.015992
v 0.440109 0.037001 0.020387
v 0.440109 0.022814 0.020387
v 0.444434 0.022814 0.015992
v 0.406916 0.037001 0.020387
v 0.406916 0.037001 0.015992
v 0.402082 0.037001 0.015992
v 0.402082 0.022814 0.015992
v 0.406916 0.022814 0.020387
v 0.428415 0.037001 0.020387
v 0.428415 0.037001 0.015992
v 0.428415 0.022814 0.020387
v 0.428509 0.039704 -0.025512
v 0.406843 0.039704 -0.025512
v 0.406843 0.039704 0.004972
v 0.428509 0.039704 0.004972
v 0.406880 0.036967 0.004971
v 0.428462 0.036967 0.004971
v 0.402152 0.039704 0.004972
v 0.402152 0.039704 -0.025512
v 0.428462 0.036967 -0.025496
vt 0.956101 0.291825
vt 0.956101 0.499652
vt 0.925250 0.499652
vt 0.925250 0.291825
vt 0.353631 0.730685
vt 0.039366 0.730685
vt 0.039366 0.584434
vt 0.353631 0.584434
vt 0.170915 0.263231
vt 0.485089 0.263231
vt 0.485089 0.409481
vt 0.170915 0.409481
vt 0.956101 0.215051
vt 0.925250 0.215051
vt 0.925250 0.184357
vt 0.447118 0.426297
vt 0.510736 0.426297
vt 0.510736 0.572548
vt 0.447118 0.572548
vt 0.688893 0.184357
vt 0.688893 0.215051
vt 0.656191 0.215051
vt 0.037232 0.426297
vt 0.104639 0.426297
vt 0.104639 0.572548
vt 0.037232 0.572548
vt 0.843960 0.184357
vt 0.843960 0.215051
vt 0.326466 0.426297
vt 0.326466 0.572548
vt 0.796242 0.499928
vt 0.686547 0.499928
vt 0.686547 0.345488
vt 0.796242 0.345488
vt 0.686547 0.331603
vt 0.796242 0.331603
vt 0.648778 0.499928
vt 0.648778 0.345488
vt 0.662655 0.345488
vt 0.662655 0.499928
vt 0.810121 0.345488
vt 0.810121 0.499928
vt 0.843960 0.499652
vt 0.843960 0.291825
vt 0.467358 0.730685
vt 0.467358 0.584434
vt 0.688893 0.291825
vt 0.656191 0.291825
vt 0.057181 0.263231
vt 0.057181 0.409481
vt 0.662655 0.331603
vn 0.0000 1.0000 0.0000
vn -0.0020 1.0000 -0.0000
vn -0.0018 1.0000 -0.0003
vn -1.0000 0.0086 0.0035
vn -1.0000 0.0076 0.0000
vn -1.0000 0.0025 0.0000
vn -1.0000 0.0019 -0.0008
vn 1.0000 0.0000 0.0000
vn -0.0007 1.0000 -0.0007
vn 0.2646 -0.0000 0.9644
vn 0.9628 0.0000 0.2701
vn 0.0000 1.0000 -0.0021
vn 0.0000 1.0000 -0.0029
vn -0.9544 0.0009 0.2985
vn -0.1646 -0.0000 0.9864
vn -0.1646 -0.0002 0.9864
vn -0.9543 0.0003 0.2988
vn -0.0004 1.0000 -0.0017
vn 0.0000 -0.0000 1.0000
vn 0.0000 -0.0004 1.0000
vn -0.9999 0.0128 0.0000
vn 0.9999 -0.0172 0.0000
vn -0.0029 1.0000 0.0000
vn -0.0015 1.0000 -0.0015
vn 0.0000 1.0000 -0.0031
usemtl lambert30.001
s 1
f 112/170/42 113/171/42 114/172/43 115/173/44
f 116/174/45 117/175/46 118/176/47 119/177/48
f 120/178/49 121/179/49 113/180/49 112/181/49
f 122/182/42 123/183/50 124/184/42
f 125/185/51 126/186/52 122/187/52 124/188/51
f 127/189/42 128/190/53 129/191/54
f 130/192/55 131/193/56 127/194/57 129/195/58
f 128/190/53 127/189/42 132/196/42 133/197/59
f 127/194/57 131/193/56 134/198/60 132/199/60
f 135/200/42 136/201/42 137/202/42 138/203/42
f 138/203/61 137/202/61 139/204/61 140/205/61
f 117/206/46 116/207/45 141/208/62 142/209/62
f 140/210/63 143/211/63 135/200/63 138/203/63
f 132/199/60 134/198/60 125/185/51 124/188/51
f 133/197/59 132/196/42 124/184/42 123/183/50
f 114/172/43 143/212/64 140/213/65 115/173/44
f 129/214/58 116/174/45 119/177/48 130/215/55
f 128/190/53 139/216/66 116/217/66 129/191/54
f 140/213/65 139/216/66 128/190/53 133/197/59
f 115/173/44 140/213/65 133/197/59 123/183/50
f 122/182/42 112/170/42 115/173/44 123/183/50
f 126/218/52 120/178/49 112/181/49 122/219/52
f 136/201/42 142/209/42 141/208/42 137/202/42
f 139/204/61 137/202/61 141/208/61 116/220/61
o Forestry_8_Mesh.001
v 0.446733 0.031034 0.016877
v 0.445338 0.031034 0.017879
v 0.446733 0.031034 0.018222
v 0.446733 0.029346 0.018222
v 0.446733 0.029346 0.016877
v 0.446733 0.031034 0.013792
v 0.446733 0.029346 0.013792
v 0.446733 0.029346 0.012228
v 0.446733 0.031034 0.012228
v 0.445292 0.031034 0.012228
v 0.445292 0.031034 0.013792
v 0.445292 0.029346 0.012228
v 0.445292 0.029346 0.013792
v 0.445292 0.022786 0.013792
v 0.446733 0.022786 0.013792
v 0.445292 0.022786 0.012228
v 0.446733 0.022786 0.012228
v 0.438184 0.031034 0.021454
v 0.438184 0.031034 0.022749
v 0.441210 0.031034 0.022749
v 0.442216 0.031034 0.021427
v 0.442216 0.029346 0.021427
v 0.441210 0.029346 0.022749
v 0.438184 0.029346 0.022749
v 0.438184 0.029346 0.021454
v 0.436620 0.029346 0.021454
v 0.436620 0.031034 0.021454
v 0.436620 0.031034 0.022749
v 0.436620 0.029346 0.022749
v 0.438184 0.022786 0.022749
v 0.438184 0.022786 0.021454
v 0.436620 0.022786 0.022749
v 0.436620 0.022786 0.021454
v 0.446162 0.031034 0.019158
v 0.446162 0.029346 0.019158
v 0.442564 0.029346 0.022749
v 0.442564 0.031034 0.022749
v 0.443524 0.031034 0.022086
v 0.443524 0.029346 0.022086
v 0.445338 0.029346 0.017879
v 0.446733 0.022795 0.016877
v 0.445338 0.022795 0.017879
v 0.446733 0.022795 0.018222
v 0.446162 0.022795 0.019158
v 0.441210 0.022795 0.022749
v 0.442564 0.022795 0.022749
v 0.442216 0.022795 0.021427
v 0.443524 0.022795 0.022086
vt 0.744237 0.881507
vt 0.725233 0.867918
vt 0.744200 0.863214
vt 0.767169 0.863168
vt 0.767205 0.881461
vt 0.671732 0.748488
vt 0.695039 0.748488
vt 0.695039 0.770078
vt 0.671732 0.770078
vt 0.651809 0.706996
vt 0.671716 0.706996
vt 0.671716 0.728586
vt 0.651809 0.728586
vt 0.695039 0.706996
vt 0.695039 0.728586
vt 0.785619 0.728586
vt 0.785619 0.748488
vt 0.785619 0.706996
vt 0.785619 0.770078
vt 0.858396 0.727502
vt 0.858396 0.740203
vt 0.829058 0.740203
vt 0.819384 0.727502
vt 0.819268 0.769237
vt 0.829058 0.756568
vt 0.858396 0.756568
vt 0.858396 0.769237
vt 0.858396 0.785601
vt 0.819268 0.785601
vt 0.548004 0.879133
vt 0.548004 0.860986
vt 0.564809 0.860986
vt 0.564809 0.879133
vt 0.564809 0.893058
vt 0.548004 0.893058
vt 0.517274 0.860986
vt 0.534079 0.860986
vt 0.534079 0.879133
vt 0.517274 0.879133
vt 0.534079 0.790483
vt 0.548004 0.790483
vt 0.517274 0.790483
vt 0.564809 0.790483
vt 0.725557 0.857357
vt 0.744171 0.848297
vt 0.767139 0.848251
vt 0.980458 0.785489
vt 0.957591 0.785448
vt 0.957624 0.767121
vt 0.980491 0.767162
vt 0.998385 0.771904
vt 0.997911 0.760899
vt 0.980519 0.751359
vt 0.957652 0.751318
vt 0.920233 0.816430
vt 0.936400 0.816430
vt 0.936400 0.869258
vt 0.920233 0.869258
vt 0.955268 0.869258
vt 0.955268 0.816430
vt 0.885176 0.816430
vt 0.901307 0.816430
vt 0.901307 0.869258
vt 0.885176 0.869258
vt 0.626317 0.839830
vt 0.670131 0.839830
vt 0.670131 0.863777
vt 0.626317 0.863777
vt 0.670131 0.883778
vt 0.611601 0.883778
vt 0.670131 0.795652
vt 0.670131 0.819601
vt 0.612675 0.819601
vt 0.612675 0.795652
vt 0.767252 0.904823
vt 0.856315 0.881284
vt 0.856361 0.904646
vt 0.856279 0.862992
vt 0.767098 0.827550
vt 0.856208 0.827373
vt 0.856249 0.848074
vt 0.868875 0.785290
vt 0.868908 0.766963
vt 0.957551 0.807941
vt 0.868835 0.807783
vt 0.957687 0.731482
vt 0.868936 0.751160
vt 0.868972 0.731323
vn -0.0000 1.0000 0.0000
vn 1.0000 0.0000 0.0000
vn -1.0000 0.0000 0.0000
vn -1.0000 0.0000 0.0038
vn -1.0000 -0.0000 0.0082
vn 0.0000 -0.0000 1.0000
vn 0.0000 -1.0000 0.0000
vn -0.0064 0.0000 -1.0000
vn -0.0022 0.0000 -1.0000
vn -0.0046 -0.0000 -1.0000
vn 0.0000 0.0000 -1.0000
vn 0.8537 0.0000 0.5208
vn 0.7693 0.0000 0.6389
vn 0.8102 -0.0000 0.5862
vn 0.6439 0.0000 0.7651
vn 0.7064 -0.0000 0.7078
vn 0.5683 0.0000 0.8228
vn -0.7507 0.0000 -0.6606
vn -0.9999 0.0000 0.0113
vn -0.5834 0.0000 -0.8122
vn -0.8407 0.0000 0.5416
vn -0.7958 0.0000 -0.6056
vn 0.4499 0.0000 -0.8931
usemtl lambert30.001
s 1
f 144/221/67 145/222/67 146/223/67
f 147/224/68 148/225/68 144/221/68 146/223/68
f 149/226/68 150/227/68 151/228/68 152/229/68
f 152/230/67 153/231/67 154/232/67 149/233/67
f 155/234/69 156/235/70 154/232/71 153/231/69
f 150/227/72 156/235/72 157/236/72 158/237/72
f 156/235/70 155/234/69 159/238/69 157/236/69
f 151/228/68 150/227/68 158/237/68 160/239/68
f 161/240/67 162/241/67 163/242/67 164/243/67
f 165/244/73 166/245/73 167/246/73 168/247/73
f 162/241/72 167/246/72 166/245/72 163/242/72
f 165/244/74 168/247/75 161/248/76 164/249/74
f 161/250/76 168/251/75 169/252/77 170/253/77
f 170/253/67 171/254/67 162/255/67 161/250/67
f 172/256/72 167/257/72 162/258/72 171/259/72
f 168/251/68 167/257/68 173/260/68 174/261/68
f 167/257/72 172/256/72 175/262/72 173/260/72
f 169/252/77 168/251/75 174/261/77 176/263/77
f 145/264/67 177/265/67 146/223/67
f 147/224/78 146/223/78 177/265/79 178/266/80
f 163/267/72 166/268/72 179/269/72 180/270/72
f 164/271/67 163/267/67 180/270/67
f 164/272/67 180/270/67 181/273/67
f 182/274/81 181/273/82 180/270/83 179/269/83
f 182/275/73 165/276/73 183/277/73 178/278/73
f 145/279/84 183/277/84 165/276/84 164/280/84
f 164/281/67 181/282/67 177/283/67 145/284/67
f 178/278/80 177/283/79 181/282/82 182/275/81
f 148/285/68 150/286/68 149/287/68 144/288/68
f 149/287/67 154/289/67 145/290/67 144/288/67
f 154/291/71 156/292/70 183/293/85 145/294/85
f 148/285/73 183/293/73 156/292/73 150/286/73
f 183/295/86 148/225/86 184/296/86 185/297/86
f 148/225/68 147/224/68 186/298/68 184/296/68
f 178/266/87 183/299/87 185/300/87 187/301/87
f 147/224/78 178/266/80 187/301/78 186/298/78
f 179/269/72 166/268/72 188/302/72 189/303/72
f 166/268/88 165/304/88 190/305/88 188/302/88
f 165/306/89 182/274/89 191/307/89 190/308/89
f 182/274/81 179/269/83 189/303/83 191/307/83
