# Blender v2.82 (sub 7) OBJ File: ''
# www.blender.org
mtllib Frank_Forward.mtl
o Frank_Forward_4_Mesh.001
v -0.017257 0.008866 -0.000304
v -0.005670 0.008866 -0.000304
v -0.005670 0.008866 -0.025833
v -0.017257 0.008866 -0.025833
v -0.005670 -0.009433 -0.025833
v -0.017257 -0.009433 -0.025833
v -0.005670 -0.009433 -0.000304
v -0.017257 -0.009433 -0.000304
v -0.005399 0.010694 0.009174
v 0.001321 0.010694 0.009174
v 0.001321 0.010694 -0.006280
v -0.005399 0.010694 -0.006280
v 0.001321 -0.009644 -0.006280
v -0.005399 -0.009644 -0.006280
v 0.001321 -0.009644 0.009174
v -0.005399 -0.009644 0.009174
v -0.005693 0.006753 -0.006090
v -0.001154 0.006753 -0.006090
v -0.001154 0.006753 -0.020348
v -0.005693 0.006753 -0.020348
v -0.001154 -0.010694 -0.020348
v -0.005693 -0.010694 -0.020348
v -0.001154 -0.010694 -0.006090
v 0.015675 0.008197 0.009278
v 0.001209 0.008197 -0.000774
v 0.001241 0.008197 0.009278
v 0.022501 0.008197 -0.000774
v 0.022501 -0.009511 -0.000774
v 0.001209 -0.009511 -0.000774
v 0.022501 -0.009511 0.009278
v 0.022501 0.008197 0.009278
v -0.004698 0.008197 0.009278
v -0.004698 -0.009511 0.009278
v -0.004698 -0.009511 0.025834
v -0.004698 0.008197 0.025834
v 0.015692 -0.009511 0.009278
v 0.015692 0.008197 0.025834
v 0.015692 -0.009511 0.025834
v -0.011552 0.005083 0.023510
v -0.004799 0.005083 0.023510
v -0.004799 0.005083 -0.000437
v -0.011552 0.005083 -0.000437
v -0.004799 -0.008624 -0.000437
v -0.011552 -0.008624 -0.000437
v -0.011552 -0.008624 0.023510
v -0.022502 -0.005157 0.002690
v -0.011153 -0.005157 0.002690
v -0.011153 -0.005157 0.001766
v -0.022502 -0.005157 0.001766
v -0.011153 -0.010052 0.001766
v -0.022502 -0.010052 0.001766
v -0.022502 -0.010052 0.002690
vt 0.198525 0.459970
vt 0.299812 0.459952
vt 0.299851 0.683107
vt 0.198564 0.683125
vt 0.198582 0.784411
vt 0.018476 0.784443
vt 0.018458 0.683156
vt 0.479918 0.459921
vt 0.479957 0.683076
vt 0.018419 0.460001
vt 0.723766 0.633813
vt 0.780267 0.633813
vt 0.780267 0.763731
vt 0.723766 0.763731
vt 0.780267 0.956261
vt 0.723766 0.956261
vt 0.910186 0.956261
vt 0.910186 0.763731
vt 0.593848 0.956261
vt 0.593848 0.763731
vt 0.236848 0.707914
vt 0.293670 0.707540
vt 0.294844 0.885996
vt 0.238023 0.886370
vt 0.295218 0.942817
vt 0.540722 0.884378
vt 0.541096 0.941200
vt 0.539547 0.705922
vt 0.498849 0.444312
vt 0.646334 0.346468
vt 0.646732 0.443238
vt 0.430874 0.134117
vt 0.432429 0.348022
vt 0.240484 0.349417
vt 0.238930 0.135512
vt 0.241187 0.446184
vt 0.433132 0.444790
vt 0.703904 0.442822
vt 0.895848 0.441427
vt 0.897006 0.600808
vt 0.705062 0.602203
vt 0.635047 0.161234
vt 0.635047 0.320644
vt 0.502681 0.320644
vt 0.502681 0.161234
vt 0.499844 0.603694
vt 0.961749 0.166646
vt 0.962357 0.225995
vt 0.751889 0.228153
vt 0.751280 0.168804
vt 0.691932 0.169413
vt 0.690541 0.033774
vt 0.749889 0.033166
vt 0.960358 0.031008
vt 0.962140 0.416069
vt 0.674138 0.414357
vt 0.674277 0.390927
vt 0.962279 0.392639
vt 0.675109 0.251060
vt 0.963111 0.252772
vt 0.986541 0.252911
vt 0.985709 0.392778
vn 0.0000 1.0000 0.0000
vn 0.0000 0.0000 -1.0000
vn 1.0000 0.0000 0.0000
vn -1.0000 0.0000 0.0000
vn 1.0000 0.0005 -0.0005
usemtl lambert1.010
s 1
f 1/1/1 2/2/1 3/3/1 4/4/1
f 4/4/2 3/5/2 5/6/2 6/7/2
f 7/8/3 5/9/3 3/3/3 2/2/3
f 6/7/4 8/10/4 1/1/4 4/4/4
f 9/11/1 10/12/1 11/13/1 12/14/1
f 12/14/2 11/13/2 13/15/2 14/16/2
f 15/17/3 13/15/3 11/13/3 10/18/3
f 14/16/4 16/19/4 9/20/4 12/14/4
f 17/21/1 18/22/1 19/23/1 20/24/1
f 20/25/2 19/23/2 21/26/2 22/27/2
f 23/28/3 21/26/3 19/23/3 18/22/3
f 24/29/1 25/30/1 26/31/1
f 25/32/2 27/33/2 28/34/2 29/35/2
f 30/36/3 28/34/3 27/33/3 31/37/3
f 32/38/4 33/39/4 34/40/4 35/41/4
f 36/42/5 24/43/5 37/44/5 38/45/5
f 26/31/1 37/46/1 24/29/1
f 35/41/1 37/46/1 26/31/1 32/38/1
f 27/33/1 25/30/1 24/29/1 31/37/1
f 39/47/1 40/48/1 41/49/1 42/50/1
f 42/50/2 41/51/2 43/52/2 44/53/2
f 44/53/4 45/54/4 39/47/4 42/50/4
f 46/55/1 47/56/1 48/57/1 49/58/1
f 49/58/2 48/57/2 50/59/2 51/60/2
f 51/60/4 52/61/4 46/62/4 49/58/4
