# Blender v2.82 (sub 7) OBJ File: ''
# www.blender.org
mtllib icics.mtl
o ICICS_Bldg_8_Mesh.001
v -0.025090 -0.010180 -0.022554
v -0.025090 -0.010180 -0.009173
v -0.025090 0.010304 -0.009172
v -0.025090 0.010304 -0.022553
v 0.025289 0.010304 -0.009172
v 0.025289 0.010304 -0.022553
v 0.025289 -0.010180 -0.009173
v 0.025289 -0.010180 -0.022554
v 0.025030 0.009737 -0.020285
v 0.025030 0.009737 -0.015237
v 0.026574 0.009299 -0.015237
v 0.026574 0.009299 -0.020285
v 0.026574 -0.010304 -0.015238
v 0.026574 -0.010304 -0.020286
v 0.025030 -0.010304 -0.015238
v -0.025023 0.009737 -0.017115
v -0.026573 0.009299 -0.017115
v -0.026573 0.009299 -0.012260
v -0.025023 0.009737 -0.012260
v -0.026573 -0.010304 -0.017116
v -0.026573 -0.010304 -0.012261
v -0.025023 -0.010304 -0.012261
v -0.021701 -0.005625 0.021072
v -0.021937 -0.005625 0.021715
v -0.021937 -0.001220 0.021715
v -0.021701 -0.001220 0.021072
v -0.016582 -0.001220 0.022170
v -0.016286 -0.001220 0.021082
v -0.010065 -0.001220 0.021002
v -0.010248 -0.001220 0.022468
v -0.010248 -0.005625 0.022468
v -0.010065 -0.005625 0.021002
v -0.016582 -0.005625 0.022170
v -0.016286 -0.005625 0.021082
v 0.014223 -0.005600 0.021051
v 0.014223 -0.001220 0.021051
v 0.014264 -0.001220 0.021846
v 0.014264 -0.005600 0.021846
v 0.008446 -0.001220 0.021056
v 0.008455 -0.001220 0.022143
v -0.003893 -0.001220 0.021057
v -0.003893 -0.005600 0.021057
v -0.003877 -0.005600 0.022553
v -0.003877 -0.001220 0.022553
v 0.008455 -0.005600 0.022143
v 0.002111 -0.001220 0.022334
v 0.002111 -0.005600 0.022334
v 0.002174 -0.001220 0.021110
v 0.008446 -0.005600 0.021056
v 0.002174 -0.005600 0.021110
v -0.025972 -0.010007 -0.004678
v -0.025972 -0.010007 0.021177
v -0.025972 0.002264 0.021178
v -0.025972 0.002264 -0.004677
v -0.009719 0.002264 0.021178
v -0.009719 0.002264 -0.004677
v -0.009719 -0.010007 0.021177
v -0.009719 -0.010007 -0.004678
v -0.004503 -0.010007 -0.004678
v -0.004503 -0.010007 0.021177
v -0.004503 0.002264 0.021178
v -0.004503 0.002264 -0.004677
v 0.026071 0.002264 0.021178
v 0.026071 0.002264 -0.004677
v 0.026071 -0.010007 0.021177
v 0.026071 -0.010007 -0.004678
v -0.009817 0.005148 0.018940
v -0.007930 0.005255 0.018940
v -0.007930 0.005255 -0.002233
v -0.009817 0.005148 -0.002233
v -0.007930 -0.010007 0.018939
v -0.009817 -0.010007 0.018939
v -0.009817 -0.010007 -0.002234
v -0.004492 -0.010007 0.018939
v -0.004492 -0.010007 -0.002234
v -0.004492 0.003425 -0.002233
v -0.004492 0.003425 0.018940
v -0.005966 -0.010007 0.018939
v -0.005966 0.004836 0.018940
v -0.005966 0.004836 -0.002233
vt 0.184986 0.018339
vt 0.293032 0.018339
vt 0.293032 0.183732
vt 0.184986 0.183732
vt 0.293032 0.291778
vt 0.699807 0.183732
vt 0.699807 0.291778
vt 0.807853 0.183732
vt 0.699807 0.018339
vt 0.807853 0.018339
vt 0.169723 0.899348
vt 0.113303 0.899014
vt 0.113410 0.881080
vt 0.169830 0.881415
vt 0.114710 0.661972
vt 0.171130 0.662306
vt 0.097459 0.661869
vt 0.096130 0.885881
vt 0.020872 0.899259
vt 0.020842 0.881246
vt 0.075126 0.881157
vt 0.075156 0.899169
vt 0.020482 0.662079
vt 0.074766 0.661989
vt 0.092098 0.661961
vt 0.092466 0.886033
vt 0.047809 0.333297
vt 0.058882 0.333315
vt 0.058697 0.404727
vt 0.047627 0.404702
vt 0.061673 0.415425
vt 0.145699 0.404599
vt 0.149335 0.422430
vt 0.272154 0.404675
vt 0.248257 0.404734
vt 0.248092 0.333330
vt 0.271995 0.333301
vt 0.145713 0.333578
vt 0.249997 0.428578
vt 0.061862 0.322624
vt 0.149342 0.315747
vt 0.249812 0.309485
vt 0.642475 0.334029
vt 0.642525 0.405892
vt 0.629483 0.405900
vt 0.629432 0.334032
vt 0.629408 0.418946
vt 0.534660 0.423584
vt 0.534074 0.405790
vt 0.307353 0.405849
vt 0.307356 0.334076
vt 0.331886 0.334077
vt 0.331883 0.405849
vt 0.534143 0.334131
vt 0.430118 0.405885
vt 0.430078 0.334028
vt 0.431856 0.425930
vt 0.332496 0.430366
vt 0.534725 0.316342
vt 0.629363 0.320976
vt 0.431818 0.313984
vt 0.332494 0.309559
vt 0.086037 0.452734
vt 0.301582 0.452734
vt 0.301582 0.555038
vt 0.086037 0.555038
vt 0.301582 0.770583
vt 0.437071 0.555038
vt 0.437071 0.770583
vt 0.652616 0.555038
vt 0.437071 0.452734
vt 0.652616 0.452734
vt 0.471850 0.980296
vt 0.471850 0.738925
vt 0.586412 0.738925
vt 0.586412 0.980296
vt 0.871841 0.738925
vt 0.871841 0.980296
vt 0.986403 0.738925
vt 0.986403 0.980296
vt 0.586412 0.624363
vt 0.871841 0.624363
vt 0.841510 0.159826
vt 0.841510 0.147365
vt 0.981023 0.147365
vt 0.981023 0.159826
vt 0.221890 0.603685
vt 0.221890 0.873710
vt 0.188486 0.871815
vt 0.188486 0.603685
vt 0.841510 0.259687
vt 0.981023 0.259687
vt 0.841510 0.032187
vt 0.981023 0.032187
vt 0.981023 0.120696
vt 0.841510 0.120696
vt 0.256608 0.603685
vt 0.256608 0.866294
vt 0.841510 0.134143
vt 0.981023 0.134143
vt 0.282699 0.603685
vt 0.282699 0.841333
vn -1.0000 0.0000 0.0000
vn 0.0000 1.0000 0.0000
vn 1.0000 0.0000 0.0000
vn 0.0000 -0.0000 1.0000
vn 0.2731 0.9620 0.0000
vn -0.2723 0.9622 0.0000
vn -0.9388 0.0000 -0.3446
vn 0.9923 0.0000 0.1238
vn -0.0845 0.0000 0.9964
vn -0.0645 0.0000 0.9979
vn -0.0472 0.0000 0.9989
vn 0.0000 -1.0000 -0.0000
vn 0.9986 0.0000 -0.0537
vn -0.9999 0.0000 0.0107
vn 0.0512 0.0000 0.9987
vn 0.0407 0.0000 0.9992
vn 0.0333 0.0000 0.9994
vn 0.0365 0.0000 0.9993
vn -0.0566 0.9984 0.0000
vn 0.0808 0.9967 0.0000
vn 0.4700 0.8826 0.0000
vn 0.6915 0.7224 0.0000
usemtl ICICS_Bldg_Texture.002
s 1
f 1/1/1 2/2/1 3/3/1 4/4/1
f 4/5/2 3/3/2 5/6/2 6/7/2
f 6/8/3 5/6/3 7/9/3 8/10/3
f 2/2/4 7/9/4 5/6/4 3/3/4
f 9/11/5 10/12/5 11/13/5 12/14/5
f 12/14/3 11/13/3 13/15/3 14/16/3
f 15/17/4 13/15/4 11/13/4 10/18/4
f 16/19/6 17/20/6 18/21/6 19/22/6
f 17/20/1 20/23/1 21/24/1 18/21/1
f 22/25/4 19/26/4 18/21/4 21/24/4
f 23/27/7 24/28/7 25/29/7 26/30/7
f 26/31/2 25/29/2 27/32/2 28/33/2
f 29/34/8 30/35/8 31/36/8 32/37/8
f 24/28/9 33/38/10 27/32/10 25/29/9
f 27/32/10 33/38/10 31/36/11 30/35/11
f 28/33/2 27/32/2 30/35/2 29/39/2
f 33/38/12 24/28/12 23/40/12 34/41/12
f 31/36/12 33/38/12 34/41/12 32/42/12
f 35/43/13 36/44/13 37/45/13 38/46/13
f 36/47/2 39/48/2 40/49/2 37/45/2
f 41/50/14 42/51/14 43/52/14 44/53/14
f 38/46/15 37/45/15 40/49/16 45/54/16
f 45/54/16 40/49/16 46/55/17 47/56/17
f 39/48/2 48/57/2 46/55/2 40/49/2
f 47/56/17 46/55/17 44/53/18 43/52/18
f 48/57/2 41/58/2 44/53/2 46/55/2
f 38/46/12 45/54/12 49/59/12 35/60/12
f 45/54/12 47/56/12 50/61/12 49/59/12
f 47/56/12 43/52/12 42/62/12 50/61/12
f 51/63/1 52/64/1 53/65/1 54/66/1
f 54/67/2 53/65/2 55/68/2 56/69/2
f 56/70/3 55/68/3 57/71/3 58/72/3
f 52/64/4 57/71/4 55/68/4 53/65/4
f 59/73/1 60/74/1 61/75/1 62/76/1
f 62/76/2 61/75/2 63/77/2 64/78/2
f 64/78/3 63/77/3 65/79/3 66/80/3
f 60/81/4 65/82/4 63/77/4 61/75/4
f 67/83/19 68/84/20 69/85/20 70/86/19
f 71/87/4 68/88/4 67/89/4 72/90/4
f 72/91/1 67/83/1 70/86/1 73/92/1
f 74/93/3 75/94/3 76/95/3 77/96/3
f 78/97/4 79/98/4 68/88/4 71/87/4
f 69/85/20 68/84/20 79/99/21 80/100/21
f 74/101/4 77/102/4 79/98/4 78/97/4
f 80/100/21 79/99/21 77/96/22 76/95/22
