# Blender v2.82 (sub 7) OBJ File: 'ubc_buildings - Copy (2).blend'
# www.blender.org
mtllib icics.mtl
o ICICS_Bldg_1_Mesh.001
v 0.383469 0.042420 -0.017695
v 0.383469 0.042420 -0.012647
v 0.385012 0.041982 -0.012647
v 0.385012 0.041982 -0.017695
v 0.385012 0.022379 -0.012647
v 0.385012 0.022379 -0.017695
v 0.383469 0.022379 -0.012647
vt 0.169723 0.899348
vt 0.113303 0.899014
vt 0.113410 0.881080
vt 0.169830 0.881415
vt 0.114710 0.661972
vt 0.171130 0.662306
vt 0.097459 0.661869
vt 0.096130 0.885881
vn 0.2731 0.9620 0.0000
vn 1.0000 0.0000 0.0000
vn 0.0000 -0.0000 1.0000
usemtl ICICS_Bldg_Texture.002
s 1
f 1/1/1 2/2/1 3/3/1 4/4/1
f 4/4/2 3/3/2 5/5/2 6/6/2
f 7/7/3 5/5/3 3/3/3 2/8/3
o ICICS_Bldg_2_Mesh.001
v 0.333415 0.042420 -0.014525
v 0.331865 0.041982 -0.014525
v 0.331865 0.041982 -0.009670
v 0.333415 0.042420 -0.009670
v 0.331865 0.022379 -0.014525
v 0.331865 0.022379 -0.009670
v 0.333415 0.022379 -0.009670
vt 0.020872 0.899259
vt 0.020842 0.881246
vt 0.075126 0.881157
vt 0.075156 0.899169
vt 0.020482 0.662079
vt 0.074766 0.661989
vt 0.092098 0.661961
vt 0.092466 0.886033
vn -0.2723 0.9622 0.0000
vn -1.0000 0.0000 0.0000
vn 0.0000 -0.0000 1.0000
usemtl ICICS_Bldg_Texture.002
s 1
f 8/9/4 9/10/4 10/11/4 11/12/4
f 9/10/5 12/13/5 13/14/5 10/11/5
f 14/15/6 11/16/6 10/11/6 13/14/6
o ICICS_Bldg_3_Mesh.001
v 0.336737 0.027058 0.023663
v 0.336501 0.027058 0.024306
v 0.336501 0.031463 0.024306
v 0.336737 0.031463 0.023663
v 0.341856 0.031463 0.024760
v 0.342152 0.031463 0.023673
v 0.348373 0.031463 0.023592
v 0.348190 0.031463 0.025059
v 0.348190 0.027058 0.025059
v 0.348373 0.027058 0.023592
v 0.341856 0.027058 0.024760
v 0.342152 0.027058 0.023673
vt 0.047809 0.333297
vt 0.058882 0.333315
vt 0.058697 0.404727
vt 0.047627 0.404702
vt 0.061673 0.415425
vt 0.145699 0.404599
vt 0.149335 0.422430
vt 0.272154 0.404675
vt 0.248257 0.404734
vt 0.248092 0.333330
vt 0.271995 0.333301
vt 0.145713 0.333578
vt 0.249997 0.428578
vt 0.061862 0.322624
vt 0.149342 0.315747
vt 0.249812 0.309485
vn -0.9388 0.0000 -0.3446
vn 0.0000 1.0000 0.0000
vn 0.9923 0.0000 0.1238
vn -0.0845 -0.0000 0.9964
vn -0.0644 -0.0000 0.9979
vn -0.0472 -0.0000 0.9989
vn 0.0000 -1.0000 0.0000
usemtl ICICS_Bldg_Texture.002
s 1
f 15/17/7 16/18/7 17/19/7 18/20/7
f 18/21/8 17/19/8 19/22/8 20/23/8
f 21/24/9 22/25/9 23/26/9 24/27/9
f 16/18/10 25/28/11 19/22/11 17/19/10
f 19/22/11 25/28/11 23/26/12 22/25/12
f 20/23/8 19/22/8 22/25/8 21/29/8
f 25/28/13 16/18/13 15/30/13 26/31/13
f 23/26/13 25/28/13 26/31/13 24/32/13
o ICICS_Bldg_4_Mesh.001
v 0.372661 0.027083 0.023642
v 0.372661 0.031463 0.023642
v 0.372703 0.031463 0.024436
v 0.372703 0.027083 0.024436
v 0.366884 0.031463 0.023647
v 0.366893 0.031463 0.024734
v 0.354545 0.031463 0.023648
v 0.354545 0.027083 0.023648
v 0.354561 0.027083 0.025144
v 0.354561 0.031463 0.025144
v 0.366893 0.027083 0.024734
v 0.360549 0.031463 0.024925
v 0.360549 0.027083 0.024925
v 0.360613 0.031463 0.023700
v 0.366884 0.027083 0.023647
v 0.360613 0.027083 0.023700
vt 0.642475 0.334029
vt 0.642525 0.405892
vt 0.629483 0.405900
vt 0.629432 0.334032
vt 0.629408 0.418946
vt 0.534660 0.423584
vt 0.534074 0.405790
vt 0.307353 0.405849
vt 0.307356 0.334076
vt 0.331886 0.334077
vt 0.331883 0.405849
vt 0.534143 0.334131
vt 0.430118 0.405885
vt 0.430078 0.334028
vt 0.431856 0.425930
vt 0.332496 0.430366
vt 0.534725 0.316342
vt 0.629363 0.320976
vt 0.431818 0.313984
vt 0.332494 0.309559
vn 0.9986 -0.0000 -0.0537
vn 0.0000 1.0000 0.0000
vn -0.9999 -0.0000 0.0107
vn 0.0512 -0.0000 0.9987
vn 0.0403 -0.0000 0.9992
vn 0.0333 -0.0000 0.9994
vn 0.0365 -0.0000 0.9993
vn 0.0000 -1.0000 0.0000
usemtl ICICS_Bldg_Texture.002
s 1
f 27/33/14 28/34/14 29/35/14 30/36/14
f 28/37/15 31/38/15 32/39/15 29/35/15
f 33/40/16 34/41/16 35/42/16 36/43/16
f 30/36/17 29/35/17 32/39/18 37/44/18
f 37/44/18 32/39/18 38/45/19 39/46/19
f 31/38/15 40/47/15 38/45/15 32/39/15
f 39/46/19 38/45/19 36/43/20 35/42/20
f 40/47/15 33/48/15 36/43/15 38/45/15
f 30/36/21 37/44/21 41/49/21 27/50/21
f 37/44/21 39/46/21 42/51/21 41/49/21
f 39/46/21 35/42/21 34/52/21 42/51/21
o ICICS_Bldg_5_Mesh.001
v 0.332467 0.022676 -0.002087
v 0.332467 0.022676 0.023768
v 0.332467 0.034947 0.023768
v 0.332467 0.034947 -0.002087
v 0.348719 0.034947 0.023768
v 0.348719 0.034947 -0.002087
v 0.348719 0.022676 0.023768
v 0.348719 0.022676 -0.002087
vt 0.086037 0.452734
vt 0.301582 0.452734
vt 0.301582 0.555038
vt 0.086037 0.555038
vt 0.301582 0.770583
vt 0.437071 0.555038
vt 0.437071 0.770583
vt 0.652616 0.555038
vt 0.437071 0.452734
vt 0.652616 0.452734
vn -1.0000 0.0000 0.0000
vn 0.0000 1.0000 0.0000
vn 1.0000 0.0000 0.0000
vn 0.0000 -0.0000 1.0000
usemtl ICICS_Bldg_Texture.002
s 1
f 43/53/22 44/54/22 45/55/22 46/56/22
f 46/57/23 45/55/23 47/58/23 48/59/23
f 48/60/24 47/58/24 49/61/24 50/62/24
f 44/54/25 49/61/25 47/58/25 45/55/25
o ICICS_Bldg_6_Mesh.001
v 0.353935 0.022676 -0.002087
v 0.353935 0.022676 0.023768
v 0.353935 0.034947 0.023768
v 0.353935 0.034947 -0.002087
v 0.384509 0.034947 0.023768
v 0.384509 0.034947 -0.002087
v 0.384509 0.022676 0.023768
v 0.384509 0.022676 -0.002087
vt 0.471850 0.980296
vt 0.471850 0.738925
vt 0.586412 0.738925
vt 0.586412 0.980296
vt 0.871841 0.738925
vt 0.871841 0.980296
vt 0.986403 0.738925
vt 0.986403 0.980296
vt 0.586412 0.624363
vt 0.871841 0.624363
vn -1.0000 0.0000 0.0000
vn 0.0000 1.0000 0.0000
vn 1.0000 0.0000 0.0000
vn 0.0000 -0.0000 1.0000
usemtl ICICS_Bldg_Texture.002
s 1
f 51/63/26 52/64/26 53/65/26 54/66/26
f 54/66/27 53/65/27 55/67/27 56/68/27
f 56/68/28 55/67/28 57/69/28 58/70/28
f 52/71/29 57/72/29 55/67/29 53/65/29
o ICICS_Bldg_7_Mesh.001
v 0.348621 0.037831 0.021530
v 0.350509 0.037938 0.021530
v 0.350509 0.037938 0.000357
v 0.348621 0.037831 0.000357
v 0.350509 0.022676 0.021530
v 0.348621 0.022676 0.021530
v 0.348621 0.022676 0.000357
v 0.353946 0.022676 0.021530
v 0.353946 0.022676 0.000357
v 0.353946 0.036108 0.000357
v 0.353946 0.036108 0.021530
v 0.352472 0.022676 0.021530
v 0.352472 0.037519 0.021530
v 0.352472 0.037519 0.000357
vt 0.841510 0.159826
vt 0.841510 0.147365
vt 0.981023 0.147365
vt 0.981023 0.159826
vt 0.221890 0.603685
vt 0.221890 0.873710
vt 0.188486 0.871815
vt 0.188486 0.603685
vt 0.841510 0.259687
vt 0.981023 0.259687
vt 0.841510 0.032187
vt 0.981023 0.032187
vt 0.981023 0.120696
vt 0.841510 0.120696
vt 0.256608 0.603685
vt 0.256608 0.866294
vt 0.841510 0.134143
vt 0.981023 0.134143
vt 0.282699 0.603685
vt 0.282699 0.841333
vn -0.0566 0.9984 0.0000
vn 0.0808 0.9967 0.0000
vn 0.0000 -0.0000 1.0000
vn -1.0000 0.0000 0.0000
vn 1.0000 -0.0000 0.0000
vn 0.4700 0.8826 0.0000
vn 0.6915 0.7224 0.0000
usemtl ICICS_Bldg_Texture.002
s 1
f 59/73/30 60/74/31 61/75/31 62/76/30
f 63/77/32 60/78/32 59/79/32 64/80/32
f 64/81/33 59/73/33 62/76/33 65/82/33
f 66/83/34 67/84/34 68/85/34 69/86/34
f 70/87/32 71/88/32 60/78/32 63/77/32
f 61/75/31 60/74/31 71/89/35 72/90/35
f 66/91/32 69/92/32 71/88/32 70/87/32
f 72/90/35 71/89/35 69/86/36 68/85/36
o ICICS_Bldg_8_Mesh.001
v 0.333348 0.022503 -0.019963
v 0.333348 0.022503 -0.006582
v 0.333348 0.042987 -0.006582
v 0.333348 0.042987 -0.019963
v 0.383727 0.042987 -0.006582
v 0.383727 0.042987 -0.019963
v 0.383727 0.022503 -0.006582
v 0.383727 0.022503 -0.019963
vt 0.184986 0.018339
vt 0.293032 0.018339
vt 0.293032 0.183732
vt 0.184986 0.183732
vt 0.293032 0.291778
vt 0.699807 0.183732
vt 0.699807 0.291778
vt 0.807853 0.183732
vt 0.699807 0.018339
vt 0.807853 0.018339
vn -1.0000 0.0000 0.0000
vn 0.0000 1.0000 0.0000
vn 1.0000 0.0000 0.0000
vn 0.0000 -0.0000 1.0000
usemtl ICICS_Bldg_Texture.002
s 1
f 73/93/37 74/94/37 75/95/37 76/96/37
f 76/97/38 75/95/38 77/98/38 78/99/38
f 78/100/39 77/98/39 79/101/39 80/102/39
f 74/94/40 79/101/40 77/98/40 75/95/40
