# Blender v2.82 (sub 7) OBJ File: 'ubc_buildings - Copy (2).blend'
# www.blender.org
mtllib IKB_clock.mtl
o pCube2_Mesh.001
v -0.248440 0.037716 -0.017632
v -0.248440 0.023992 -0.017632
v -0.247031 0.023992 -0.017632
v -0.247031 0.037716 -0.017632
v -0.248742 0.039326 -0.017632
v -0.246729 0.039326 -0.017632
v -0.246729 0.039326 -0.019645
v -0.248742 0.039326 -0.019645
v -0.248440 0.023992 -0.019645
v -0.248440 0.037716 -0.019645
v -0.247031 0.037716 -0.019645
v -0.247031 0.023992 -0.019645
v -0.246729 0.037716 -0.017934
v -0.246729 0.023992 -0.017934
v -0.246729 0.023992 -0.019343
v -0.246729 0.037716 -0.019343
v -0.248742 0.037716 -0.019343
v -0.248742 0.023992 -0.019343
v -0.248742 0.023992 -0.017934
v -0.248742 0.037716 -0.017934
v -0.248742 0.037930 -0.019645
v -0.246729 0.037930 -0.019645
v -0.246729 0.037930 -0.017632
v -0.248742 0.037930 -0.017632
vt 0.931065 0.150906
vt 0.931065 0.760085
vt 0.868536 0.760085
vt 0.868536 0.150907
vt 0.191955 0.553110
vt 0.280893 0.553113
vt 0.280890 0.642050
vt 0.191953 0.642048
vt 0.869449 0.760195
vt 0.869449 0.151016
vt 0.931979 0.151016
vt 0.931979 0.760195
vt 0.589887 0.618833
vt 0.590160 0.009452
vt 0.652563 0.009436
vt 0.652729 0.618638
vt 0.591858 0.618833
vt 0.592131 0.009452
vt 0.654534 0.009436
vt 0.654700 0.618638
vt 0.856052 0.079554
vt 0.945376 0.079554
vt 0.856052 0.141543
vt 0.945376 0.141543
vt 0.855139 0.079444
vt 0.944463 0.079444
vt 0.855139 0.141433
vt 0.944463 0.141433
vt 0.665599 0.691040
vt 0.577641 0.690178
vt 0.665376 0.629142
vt 0.576756 0.629717
vt 0.667570 0.691039
vt 0.579612 0.690178
vt 0.667347 0.629142
vt 0.578727 0.629717
vt 0.673443 0.009403
vt 0.673654 0.617174
vt 0.571210 0.009389
vt 0.570975 0.617278
vt 0.573181 0.009389
vt 0.572947 0.617277
vt 0.671472 0.009403
vt 0.671683 0.617175
vn -0.0000 -0.0000 1.0000
vn 0.0000 1.0000 0.0000
vn 0.0000 0.0000 -1.0000
vn 1.0000 -0.0000 0.0000
vn -1.0000 0.0000 0.0000
vn -0.7071 0.0000 0.7071
vn 0.7071 0.0000 0.7071
vn -0.7071 0.0000 -0.7071
vn 0.7071 0.0000 -0.7071
vn -0.5000 -0.7071 0.5001
vn 0.5001 -0.7070 0.5001
vn -0.5000 -0.7071 -0.5000
vn 0.5000 -0.7071 -0.5000
usemtl lambert39.001
s 1
f 1/1/1 2/2/1 3/3/1 4/4/1
f 5/5/2 6/6/2 7/7/2 8/8/2
f 9/9/3 10/10/3 11/11/3 12/12/3
f 13/13/4 14/14/4 15/15/4 16/16/4
f 17/17/5 18/18/5 19/19/5 20/20/5
f 8/21/3 7/22/3 21/23/3
f 21/23/3 7/22/3 10/10/3
f 10/10/3 7/22/3 11/11/3
f 7/22/3 22/24/3 11/11/3
f 6/25/1 5/26/1 23/27/1
f 23/27/1 5/26/1 4/4/1
f 4/4/1 5/26/1 1/1/1
f 24/28/1 1/1/1 5/26/1
f 7/29/4 6/30/4 22/31/4
f 22/31/4 6/30/4 16/16/4
f 16/16/4 6/30/4 13/13/4
f 23/32/4 13/13/4 6/30/4
f 5/33/5 8/34/5 24/35/5
f 24/35/5 8/34/5 20/20/5
f 20/20/5 8/34/5 17/17/5
f 21/36/5 17/17/5 8/34/5
f 19/19/6 2/37/6 1/38/6 20/20/6
f 3/39/7 14/14/7 13/13/7 4/40/7
f 9/41/8 18/18/8 17/17/8 10/42/8
f 15/15/9 12/43/9 11/44/9 16/16/9
f 20/20/10 1/38/10 24/35/10
f 13/13/11 23/32/11 4/40/11
f 10/42/12 17/17/12 21/36/12
f 16/16/13 11/44/13 22/31/13
o pCylinder5_Mesh.001
v -0.253357 0.024119 -0.024497
v -0.254899 0.024119 -0.023066
v -0.250994 0.024119 -0.020403
v -0.252364 0.024119 -0.022777
v -0.255668 0.024119 -0.021108
v -0.255511 0.024119 -0.019010
v -0.254459 0.024119 -0.017188
v -0.252721 0.024119 -0.016003
v -0.250640 0.024119 -0.015689
v -0.248709 0.024119 -0.016273
v -0.253534 0.024119 -0.024688
v -0.255109 0.024119 -0.023209
v -0.255919 0.024119 -0.021146
v -0.255753 0.024119 -0.018935
v -0.254645 0.024119 -0.017015
v -0.252813 0.024119 -0.015766
v -0.250621 0.024119 -0.015436
v -0.248571 0.024119 -0.016053
v -0.253812 0.024304 -0.024984
v -0.255437 0.024304 -0.023431
v -0.256310 0.024304 -0.021205
v -0.256132 0.024304 -0.018818
v -0.254935 0.024304 -0.016746
v -0.252958 0.024304 -0.015398
v -0.250593 0.024304 -0.015041
v -0.248357 0.024304 -0.015708
v -0.245755 0.024119 -0.018111
v -0.248039 0.024119 -0.022241
v -0.249410 0.024119 -0.024614
v -0.245616 0.024119 -0.017890
v -0.245402 0.024304 -0.017545
v -0.252364 0.023001 -0.022777
v -0.253357 0.023001 -0.024497
v -0.253534 0.023001 -0.024688
v -0.255714 0.023185 -0.026519
v -0.258022 0.023185 -0.024314
v -0.259262 0.023185 -0.021151
v -0.259008 0.023185 -0.017761
v -0.257309 0.023185 -0.014818
v -0.254501 0.023185 -0.012903
v -0.251141 0.023185 -0.012396
v -0.247965 0.023185 -0.013343
v -0.249410 0.023001 -0.024614
v -0.245755 0.023001 -0.018111
v -0.248039 0.023001 -0.022241
v -0.245616 0.023001 -0.017890
v -0.243506 0.023185 -0.016145
vt 0.122393 0.305035
vt 0.142004 0.233634
vt 0.290608 0.310600
vt 0.193503 0.307953
vt 0.189871 0.177262
vt 0.257051 0.146856
vt 0.330696 0.148361
vt 0.396499 0.181367
vt 0.441753 0.239506
vt 0.457558 0.308546
vt 0.113422 0.302520
vt 0.134122 0.229374
vt 0.184536 0.170106
vt 0.255277 0.138096
vt 0.332850 0.139700
vt 0.402151 0.174458
vt 0.449797 0.235666
vt 0.466728 0.308838
vt 0.098092 0.298082
vt 0.120573 0.221974
vt 0.175322 0.157766
vt 0.252201 0.122986
vt 0.336549 0.124754
vt 0.411884 0.162523
vt 0.463684 0.228970
vt 0.482455 0.309049
vt 0.453562 0.431465
vt 0.285003 0.433213
vt 0.187678 0.431117
vt 0.462878 0.431724
vt 0.478824 0.432060
vt 0.941676 0.748791
vt 0.941681 0.664005
vt 0.989432 0.664008
vt 0.989427 0.748793
vt 0.941675 0.759897
vt 0.989426 0.759900
vt 0.933800 0.777226
vt 0.981814 0.881404
vt 0.010540 0.259463
vt 0.044130 0.150619
vt 0.123909 0.058762
vt 0.235143 0.009389
vt 0.356813 0.011657
vt 0.466129 0.065771
vt 0.542043 0.161440
vt 0.570682 0.277218
vt 0.941690 0.515539
vt 0.989441 0.515541
vt 0.941696 0.398584
vt 0.941708 0.197169
vt 0.989459 0.197172
vt 0.989447 0.398587
vt 0.941709 0.186064
vt 0.989460 0.186067
vt 0.565478 0.464818
vt 0.933836 0.168734
vt 0.983525 0.069096
vn 0.4017 0.8821 -0.2460
vn 0.0000 1.0000 0.0000
vn -0.0066 0.9751 -0.2218
vn 0.6896 0.4184 -0.5911
vn 0.2494 0.9540 0.1663
vn 0.3014 0.9524 0.0455
vn 0.2913 0.9524 -0.0899
vn 0.2234 0.9524 -0.2075
vn 0.1111 0.9524 -0.2838
vn -0.0204 0.9527 -0.3032
vn -0.0903 0.9491 -0.3017
vn 0.0329 0.8644 -0.5018
vn -0.2690 0.9440 -0.1909
vn -0.3004 0.9524 -0.0521
vn -0.2792 0.9566 0.0839
vn -0.2125 0.9563 0.2007
vn -0.1055 0.9516 0.2886
vn 0.0344 0.9420 0.3339
vn 0.1652 0.9316 0.3237
vn 0.2604 0.9545 -0.1451
vn 0.2703 0.9507 -0.1519
vn 0.0570 0.8863 -0.4596
vn 0.3958 0.6448 -0.6539
vn -0.2186 0.9104 -0.3514
vn 0.3227 0.9312 0.1696
vn -0.0296 0.0000 -0.9996
vn 0.8528 -0.0000 -0.5222
vn 0.6623 -0.0290 -0.7487
vn -0.2348 0.9013 -0.3640
vn -0.3307 0.9222 -0.2007
vn -0.3548 0.9339 -0.0440
vn -0.3272 0.9392 0.1039
vn -0.2545 0.9389 0.2315
vn -0.1409 0.9329 0.3313
vn 0.0103 0.9202 0.3914
vn 0.1827 0.8997 0.3964
vn 0.1230 0.0000 -0.9924
vn 0.8736 -0.0000 -0.4866
vn 0.8718 -0.0000 -0.4899
vn 0.6868 0.0782 -0.7226
vn 0.2905 0.8991 0.3275
usemtl lambert39.001
s 1
f 25/45/14 26/46/15 27/47/15 28/48/16
f 26/46/15 29/49/15 27/47/15
f 29/49/15 30/50/15 27/47/15
f 30/50/15 31/51/15 27/47/15
f 31/51/15 32/52/15 27/47/15
f 32/52/15 33/53/15 27/47/15
f 33/53/15 34/54/15 27/47/15
f 26/46/15 25/45/14 35/55/17 36/56/18
f 29/49/15 26/46/15 36/56/18 37/57/19
f 30/50/15 29/49/15 37/57/19 38/58/20
f 31/51/15 30/50/15 38/58/20 39/59/21
f 32/52/15 31/51/15 39/59/21 40/60/22
f 33/53/15 32/52/15 40/60/22 41/61/23
f 34/54/15 33/53/15 41/61/23 42/62/24
f 36/56/18 35/55/17 43/63/25 44/64/26
f 37/57/19 36/56/18 44/64/26 45/65/27
f 38/58/20 37/57/19 45/65/27 46/66/28
f 39/59/21 38/58/20 46/66/28 47/67/29
f 40/60/22 39/59/21 47/67/29 48/68/30
f 41/61/23 40/60/22 48/68/30 49/69/31
f 42/62/24 41/61/23 49/69/31 50/70/32
f 27/47/15 34/54/15 51/71/33 52/72/34
f 28/48/16 27/47/15 52/72/34 53/73/35
f 34/54/15 42/62/15 54/74/36 51/71/33
f 42/62/37 50/70/32 55/75/38 54/74/36
f 25/76/14 28/77/16 56/78/39 57/79/40
f 35/80/17 25/76/14 57/79/40 58/81/41
f 43/82/25 35/80/17 58/81/41 59/83/42
f 44/64/26 43/63/25 59/84/42 60/85/43
f 45/65/27 44/64/26 60/85/43 61/86/44
f 46/66/28 45/65/27 61/86/44 62/87/45
f 47/67/29 46/66/28 62/87/45 63/88/46
f 48/68/30 47/67/29 63/88/46 64/89/47
f 49/69/31 48/68/30 64/89/47 65/90/48
f 50/70/32 49/69/31 65/90/48 66/91/49
f 28/77/16 53/92/35 67/93/50 56/78/39
f 52/94/34 51/95/33 68/96/51 69/97/52
f 53/92/35 52/94/34 69/97/52 67/93/50
f 51/95/33 54/98/36 70/99/53 68/96/51
f 55/75/38 50/70/32 66/91/49 71/100/54
f 54/98/36 55/101/38 71/102/54 70/99/53
o pCylinder6_Mesh.001
v -0.249143 0.025145 -0.021649
v -0.250213 0.025145 -0.023249
v -0.251687 0.025145 -0.021928
v -0.250443 0.025145 -0.021792
v -0.252029 0.023798 -0.021657
v -0.251710 0.023803 -0.021589
v -0.251687 0.025127 -0.021896
v -0.252006 0.025122 -0.021964
v -0.250402 0.023785 -0.021787
v -0.249143 0.023785 -0.021649
v -0.249114 0.023814 -0.021292
v -0.248812 0.023808 -0.021273
v -0.248789 0.025132 -0.021580
v -0.249091 0.025137 -0.021599
v -0.248760 0.023785 -0.021792
v -0.250029 0.023785 -0.023414
v -0.250029 0.025145 -0.023414
v -0.248760 0.025145 -0.021792
v -0.250353 0.025145 -0.023457
v -0.250353 0.023785 -0.023457
v -0.252030 0.023785 -0.022198
v -0.252030 0.025145 -0.022198
v -0.251687 0.023785 -0.021928
v -0.250185 0.025145 -0.023435
v -0.250193 0.023785 -0.023436
vt 0.022314 0.305313
vt 0.147845 0.419612
vt 0.013313 0.530857
vt 0.017717 0.420526
vt 0.010540 0.020001
vt 0.038648 0.020488
vt 0.040683 0.137260
vt 0.012574 0.136772
vt 0.280656 0.433213
vt 0.277073 0.553110
vt 0.166037 0.553110
vt 0.166037 0.433213
vt 0.010540 0.564684
vt 0.037125 0.564227
vt 0.039153 0.680998
vt 0.012570 0.681455
vt 0.512700 0.490681
vt 0.512700 0.633752
vt 0.392802 0.633752
vt 0.392802 0.490681
vt 0.188749 0.689638
vt 0.068851 0.689638
vt 0.068851 0.578543
vt 0.188749 0.578543
vt 0.535376 0.039249
vt 0.415479 0.039249
vt 0.417024 0.036453
vt 0.533795 0.009389
vt 0.032377 0.564296
vt 0.012271 0.559177
vt 0.010540 0.530494
vt 0.069945 0.530837
vt 0.186716 0.557900
vt 0.393896 0.471908
vt 0.510667 0.444844
vt 0.039818 0.273748
vt 0.018597 0.300066
vt 0.020867 0.273527
vt 0.010540 0.009389
vt 0.130438 0.009389
vt 0.127948 0.040907
vt 0.011177 0.013844
vt 0.054537 0.557077
vt 0.053775 0.676974
vt 0.039696 0.676974
vt 0.039696 0.557077
vt 0.164191 0.434495
vt 0.164696 0.405677
vt 0.164453 0.419527
vt 0.390420 0.553110
vt 0.390420 0.433213
vt 0.068269 0.676974
vt 0.068269 0.557077
vn 0.0000 1.0000 -0.0000
vn -0.2062 0.2243 0.9524
vn -0.1090 0.0002 0.9940
vn -0.1088 -0.0000 0.9941
vn -0.1092 0.0002 0.9940
vn -0.0579 0.2264 0.9723
vn 0.7876 0.0000 -0.6162
vn -0.6008 0.0000 -0.7994
vn 0.9979 -0.0011 0.0654
vn -0.0888 0.9835 0.1579
vn -0.9994 0.0121 0.0313
vn -0.9994 0.0121 0.0314
vn 0.9938 0.0042 0.1107
vn 0.9939 0.0042 0.1107
vn 0.9939 0.0042 0.1106
vn 0.0207 0.9972 0.0725
vn -0.9802 0.0308 0.1957
vn 0.1316 -0.0000 -0.9913
vn 0.1312 -0.0000 -0.9914
vn 0.1308 -0.0000 -0.9914
vn -0.1089 0.0002 0.9941
vn 0.1311 -0.0000 -0.9914
usemtl lambert39.001
s 1
f 72/103/55 73/104/55 74/105/55 75/106/55
f 76/107/56 77/108/56 78/109/56 79/110/56
f 75/111/57 80/112/58 81/113/59 72/114/59
f 82/115/60 83/116/60 84/117/60 85/118/60
f 86/119/61 87/120/61 88/121/61 89/122/61
f 90/123/62 91/124/62 92/125/62 93/126/62
f 94/127/63 74/128/63 78/129/63 77/130/63
f 74/105/64 93/131/64 79/132/64 78/133/64
f 93/126/65 92/125/65 76/134/66 79/135/65
f 86/119/67 89/122/68 84/136/67 83/137/69
f 89/138/70 72/103/70 85/139/70 84/140/70
f 72/141/71 81/142/71 82/143/71 85/144/71
f 95/145/72 96/146/73 91/147/74 90/148/74
f 93/131/55 74/105/55 73/104/55 90/149/55
f 88/150/55 73/104/55 72/103/55 89/138/55
f 90/149/55 73/104/55 88/150/55 95/151/55
f 94/152/75 80/112/58 75/111/57 74/153/75
f 87/154/76 96/146/73 95/145/72 88/155/76
