# Blender v2.82 (sub 7) OBJ File: ''
# www.blender.org
mtllib kaiser_bldg.mtl
o Kaiser_Bldg_2_Mesh.001
v -0.021793 0.007733 -0.012901
v -0.021793 0.007733 0.007598
v -0.021793 0.007963 0.007598
v -0.021793 0.007963 -0.012901
v 0.026183 0.007963 0.007598
v 0.026183 0.007963 -0.012901
v 0.026183 0.007733 0.007598
v 0.026183 0.007733 -0.012901
v 0.025066 0.007578 -0.004907
v 0.025066 0.007578 -0.000964
v 0.029634 0.007578 -0.000964
v 0.029634 0.007578 -0.004907
v 0.025066 -0.007963 -0.000964
v 0.029634 -0.007963 -0.000964
v 0.000161 -0.007565 0.003549
v 0.000161 -0.007565 0.006216
v 0.000161 -0.000128 0.006216
v 0.000161 -0.000128 0.003549
v 0.025269 -0.000128 -0.013497
v 0.025269 -0.000128 0.006216
v 0.025269 -0.007565 0.006216
v 0.025269 -0.007565 -0.013497
v -0.025653 -0.000282 -0.012901
v -0.025653 -0.000282 0.007598
v -0.025653 0.006799 0.007598
v -0.025653 0.006799 -0.012901
v 0.026183 0.006799 0.007598
v 0.026183 0.006799 -0.012901
v 0.026183 -0.000282 0.007598
v 0.026183 -0.000282 -0.012901
v -0.019979 0.006280 -0.002068
v -0.019979 0.006280 0.005429
v -0.019979 0.007749 0.005429
v -0.019979 0.007749 -0.002068
v 0.026042 0.007749 -0.002068
v 0.026042 0.007749 0.005429
v 0.026042 0.006280 0.005429
v 0.026042 0.006280 -0.002068
v 0.008468 0.006280 0.005429
v 0.008468 0.007749 0.005429
v 0.025999 0.006362 -0.010106
v 0.025999 0.007830 -0.010106
v -0.013589 0.007749 0.005429
v -0.013589 0.006280 0.005429
v 0.000520 -0.003538 0.004314
v 0.000520 -0.003538 0.013497
v 0.000510 -0.003343 0.013497
v 0.000510 -0.003343 0.004314
v 0.008929 -0.002901 0.013497
v 0.008929 -0.002901 0.004314
v 0.008939 -0.003097 0.013497
v 0.008939 -0.003097 0.004314
v -0.029634 -0.007565 -0.010219
v -0.029634 -0.007565 0.004759
v -0.029634 -0.000128 0.004759
v -0.029634 -0.000128 -0.010219
v -0.025283 -0.000128 0.004759
v -0.025283 -0.000128 -0.010219
v -0.025283 -0.007565 0.004759
v 0.000898 -0.007565 0.004759
v 0.000898 -0.000128 0.004759
v 0.001673 -0.007697 0.012997
v 0.001793 -0.007697 0.012997
v 0.001793 -0.003311 0.012997
v 0.001673 -0.003311 0.012997
v 0.001793 -0.007697 0.012877
v 0.001793 -0.003311 0.012877
v 0.001673 -0.007697 0.012877
v 0.001673 -0.003311 0.012877
vt 0.027323 0.666294
vt 0.027323 0.830124
vt 0.025490 0.830124
vt 0.025490 0.666294
vt 0.027323 0.995788
vt 0.027323 0.831958
vt 0.410754 0.831958
vt 0.410754 0.995788
vt 0.412588 0.666294
vt 0.412588 0.830124
vt 0.410754 0.830124
vt 0.410754 0.666294
vt 0.273393 0.659157
vt 0.273393 0.590069
vt 0.353613 0.590069
vt 0.353613 0.659157
vt 0.273393 0.317188
vt 0.353613 0.317188
vt 0.011289 0.066835
vt 0.050409 0.066835
vt 0.050409 0.175898
vt 0.011289 0.175898
vt 0.707703 0.175898
vt 0.418608 0.175898
vt 0.418608 0.066835
vt 0.707703 0.066835
vt 0.728588 0.991762
vt 0.728587 0.798570
vt 0.795323 0.798570
vt 0.795323 0.991762
vt 0.988515 0.798570
vt 0.795323 0.310040
vt 0.988515 0.310040
vt 0.795323 0.116848
vt 0.728587 0.310040
vt 0.728587 0.116848
vt 0.535395 0.798570
vt 0.535395 0.310040
vt 0.005029 0.018163
vt 0.112629 0.018163
vt 0.112629 0.039237
vt 0.005029 0.039237
vt 0.880731 0.039237
vt 0.773130 0.039237
vt 0.773130 0.018163
vt 0.880731 0.018163
vt 0.520901 0.018163
vt 0.520901 0.039237
vt 0.996101 0.018163
vt 0.996101 0.039237
vt 0.204329 0.039237
vt 0.204329 0.018163
vt 0.096803 0.404713
vt 0.096803 0.513981
vt 0.095092 0.513981
vt 0.095092 0.404713
vt 0.096803 0.625576
vt 0.096803 0.516308
vt 0.197113 0.516308
vt 0.197113 0.625576
vt 0.200057 0.404713
vt 0.200057 0.513981
vt 0.197113 0.513981
vt 0.197113 0.404713
vt 0.008674 0.187334
vt 0.234243 0.187334
vt 0.234243 0.299331
vt 0.008674 0.299331
vt 0.234243 0.360187
vt 0.008674 0.360187
vt 0.300424 0.187334
vt 0.300424 0.299331
vt 0.694699 0.187334
vt 0.694699 0.299331
vt 0.059816 0.416288
vt 0.065120 0.416288
vt 0.065120 0.609857
vt 0.059816 0.609857
vt 0.070424 0.416288
vt 0.070424 0.609857
vt 0.054512 0.416288
vt 0.054512 0.609857
vn -1.0000 0.0000 0.0000
vn 0.0000 1.0000 0.0000
vn 1.0000 0.0000 0.0000
vn 0.0000 0.0000 1.0000
vn 0.0000 -1.0000 -0.0000
vn 1.0000 0.0000 -0.0027
vn 1.0000 -0.0000 -0.0054
vn -0.9986 -0.0521 0.0000
vn -0.0524 0.9986 0.0000
vn 0.9986 0.0524 0.0000
vn 0.0523 -0.9986 -0.0000
usemtl Kaiser_Bldg_Texture.001
s 1
f 1/1/1 2/2/1 3/3/1 4/4/1
f 4/5/2 3/6/2 5/7/2 6/8/2
f 6/9/3 5/10/3 7/11/3 8/12/3
f 2/2/4 7/11/4 5/7/4 3/6/4
f 2/2/5 1/1/5 8/12/5 7/11/5
f 9/13/2 10/14/2 11/15/2 12/16/2
f 13/17/4 14/18/4 11/15/4 10/14/4
f 15/19/1 16/20/1 17/21/1 18/22/1
f 19/23/3 20/24/3 21/25/3 22/26/3
f 16/20/4 21/25/4 20/24/4 17/21/4
f 23/27/1 24/28/1 25/29/1 26/30/1
f 26/31/2 25/29/2 27/32/2 28/33/2
f 28/34/3 27/32/3 29/35/3 30/36/3
f 24/28/4 29/35/4 27/32/4 25/29/4
f 24/28/5 23/37/5 30/38/5 29/35/5
f 31/39/1 32/40/1 33/41/1 34/42/1
f 35/43/6 36/44/3 37/45/3 38/46/6
f 39/47/4 37/45/4 36/44/4 40/48/4
f 35/43/6 38/46/6 41/49/7 42/50/7
f 39/47/4 40/48/4 43/51/4 44/52/4
f 44/52/4 43/51/4 33/41/4 32/40/4
f 45/53/8 46/54/8 47/55/8 48/56/8
f 48/57/9 47/58/9 49/59/9 50/60/9
f 50/61/10 49/62/10 51/63/10 52/64/10
f 46/54/4 51/63/4 49/59/4 47/58/4
f 46/54/11 45/53/11 52/64/11 51/63/11
f 53/65/1 54/66/1 55/67/1 56/68/1
f 56/68/2 55/67/2 57/69/2 58/70/2
f 54/66/4 59/71/4 57/72/4 55/67/4
f 59/71/4 60/73/4 61/74/4 57/72/4
f 62/75/4 63/76/4 64/77/4 65/78/4
f 63/76/3 66/79/3 67/80/3 64/77/3
f 68/81/1 62/75/1 65/78/1 69/82/1
