# Blender v2.82 (sub 7) OBJ File: 'ubc_buildings - Copy (2).blend'
# www.blender.org
mtllib kaiser_bldg.mtl
o Kaiser_Bldg_1_Mesh.001
v 0.256313 0.037960 0.014496
v 0.256313 0.037960 0.018439
v 0.260881 0.037960 0.018439
v 0.260881 0.037960 0.014496
v 0.256313 0.022419 0.018439
v 0.260881 0.022419 0.018439
vt 0.273393 0.659157
vt 0.273393 0.590069
vt 0.353613 0.590069
vt 0.353613 0.659157
vt 0.273393 0.317188
vt 0.353613 0.317188
vn 0.0000 1.0000 0.0000
vn 0.0000 -0.0000 1.0000
usemtl Kaiser_Bldg_Texture.001
s 1
f 1/1/1 2/2/1 3/3/1 4/4/1
f 5/5/2 6/6/2 3/3/2 2/2/2
o Kaiser_Bldg_2_Mesh.001
v 0.209454 0.038115 0.006502
v 0.209454 0.038115 0.027001
v 0.209454 0.038345 0.027001
v 0.209454 0.038345 0.006502
v 0.257430 0.038345 0.027001
v 0.257430 0.038345 0.006502
v 0.257430 0.038115 0.027001
v 0.257430 0.038115 0.006502
vt 0.027323 0.666294
vt 0.027323 0.830124
vt 0.025490 0.830124
vt 0.025490 0.666294
vt 0.027323 0.995788
vt 0.027323 0.831958
vt 0.410754 0.831958
vt 0.410754 0.995788
vt 0.412588 0.666294
vt 0.412588 0.830124
vt 0.410754 0.830124
vt 0.410754 0.666294
vn -1.0000 0.0000 0.0000
vn 0.0000 1.0000 0.0000
vn 1.0000 0.0000 0.0000
vn 0.0000 0.0000 1.0000
vn 0.0000 -1.0000 -0.0000
usemtl Kaiser_Bldg_Texture.001
s 1
f 7/7/3 8/8/3 9/9/3 10/10/3
f 10/11/4 9/12/4 11/13/4 12/14/4
f 12/15/5 11/16/5 13/17/5 14/18/5
f 8/8/6 13/17/6 11/13/6 9/12/6
f 8/8/7 7/7/7 14/18/7 13/17/7
o Kaiser_Bldg_3_Mesh.001
v 0.231408 0.022817 0.022952
v 0.231408 0.022817 0.025619
v 0.231408 0.030254 0.025619
v 0.231408 0.030254 0.022952
v 0.256516 0.030254 0.005906
v 0.256516 0.030254 0.025619
v 0.256516 0.022817 0.025619
v 0.256516 0.022817 0.005906
vt 0.011289 0.066835
vt 0.050409 0.066835
vt 0.050409 0.175898
vt 0.011289 0.175898
vt 0.707703 0.175898
vt 0.418608 0.175898
vt 0.418608 0.066835
vt 0.707703 0.066835
vn -1.0000 0.0000 0.0000
vn 1.0000 -0.0000 0.0000
vn 0.0000 -0.0000 1.0000
usemtl Kaiser_Bldg_Texture.001
s 1
f 15/19/8 16/20/8 17/21/8 18/22/8
f 19/23/9 20/24/9 21/25/9 22/26/9
f 16/20/10 21/25/10 20/24/10 17/21/10
o Kaiser_Bldg_4_Mesh.001
v 0.205594 0.030100 0.006502
v 0.205594 0.030100 0.027001
v 0.205594 0.037181 0.027001
v 0.205594 0.037181 0.006502
v 0.257430 0.037181 0.027001
v 0.257430 0.037181 0.006502
v 0.257430 0.030100 0.027001
v 0.257430 0.030100 0.006502
vt 0.728588 0.991762
vt 0.728587 0.798570
vt 0.795323 0.798570
vt 0.795323 0.991762
vt 0.988515 0.798570
vt 0.795323 0.310040
vt 0.988515 0.310040
vt 0.795323 0.116848
vt 0.728587 0.310040
vt 0.728587 0.116848
vt 0.535395 0.798570
vt 0.535395 0.310040
vn -1.0000 0.0000 0.0000
vn 0.0000 1.0000 0.0000
vn 1.0000 -0.0000 0.0000
vn 0.0000 0.0000 1.0000
vn 0.0000 -1.0000 -0.0000
usemtl Kaiser_Bldg_Texture.001
s 1
f 23/27/11 24/28/11 25/29/11 26/30/11
f 26/31/12 25/29/12 27/32/12 28/33/12
f 28/34/13 27/32/13 29/35/13 30/36/13
f 24/28/14 29/35/14 27/32/14 25/29/14
f 24/28/15 23/37/15 30/38/15 29/35/15
o Kaiser_Bldg_5_Mesh.001
v 0.211268 0.036662 0.017335
v 0.211268 0.036662 0.024832
v 0.211268 0.038131 0.024832
v 0.211268 0.038131 0.017335
v 0.257289 0.038131 0.017335
v 0.257289 0.038131 0.024832
v 0.257289 0.036662 0.024832
v 0.257289 0.036662 0.017335
v 0.239715 0.036662 0.024832
v 0.239715 0.038131 0.024832
v 0.257246 0.036744 0.009297
v 0.257246 0.038212 0.009297
v 0.217658 0.038131 0.024832
v 0.217658 0.036662 0.024832
vt 0.005029 0.018163
vt 0.112629 0.018163
vt 0.112629 0.039237
vt 0.005029 0.039237
vt 0.880731 0.039237
vt 0.773130 0.039237
vt 0.773130 0.018163
vt 0.880731 0.018163
vt 0.520901 0.018163
vt 0.520901 0.039237
vt 0.996101 0.018163
vt 0.996101 0.039237
vt 0.204329 0.039237
vt 0.204329 0.018163
vn -1.0000 0.0000 0.0000
vn 1.0000 -0.0000 -0.0027
vn 1.0000 0.0000 0.0000
vn 0.0000 0.0000 1.0000
vn 1.0000 -0.0000 -0.0054
usemtl Kaiser_Bldg_Texture.001
s 1
f 31/39/16 32/40/16 33/41/16 34/42/16
f 35/43/17 36/44/18 37/45/18 38/46/17
f 39/47/19 37/45/19 36/44/19 40/48/19
f 35/43/17 38/46/17 41/49/20 42/50/20
f 39/47/19 40/48/19 43/51/19 44/52/19
f 44/52/19 43/51/19 33/41/19 32/40/19
o Kaiser_Bldg_6_Mesh.001
v 0.231767 0.026844 0.023717
v 0.231767 0.026844 0.032900
v 0.231757 0.027039 0.032900
v 0.231757 0.027039 0.023717
v 0.240176 0.027481 0.032900
v 0.240176 0.027481 0.023717
v 0.240186 0.027285 0.032900
v 0.240186 0.027285 0.023717
vt 0.096803 0.404713
vt 0.096803 0.513981
vt 0.095092 0.513981
vt 0.095092 0.404713
vt 0.096803 0.625576
vt 0.096803 0.516308
vt 0.197113 0.516308
vt 0.197113 0.625576
vt 0.200057 0.404713
vt 0.200057 0.513981
vt 0.197113 0.513981
vt 0.197113 0.404713
vn -0.9986 -0.0522 0.0000
vn -0.0524 0.9986 0.0000
vn 0.9986 0.0524 0.0000
vn 0.0000 0.0000 1.0000
vn 0.0523 -0.9986 -0.0000
usemtl Kaiser_Bldg_Texture.001
s 1
f 45/53/21 46/54/21 47/55/21 48/56/21
f 48/57/22 47/58/22 49/59/22 50/60/22
f 50/61/23 49/62/23 51/63/23 52/64/23
f 46/54/24 51/63/24 49/59/24 47/58/24
f 46/54/25 45/53/25 52/64/25 51/63/25
o Kaiser_Bldg_7_Mesh.001
v 0.201613 0.022817 0.009184
v 0.201613 0.022817 0.024162
v 0.201613 0.030254 0.024162
v 0.201613 0.030254 0.009184
v 0.205964 0.030254 0.024162
v 0.205964 0.030254 0.009184
v 0.205964 0.022817 0.024162
v 0.232145 0.022817 0.024162
v 0.232145 0.030254 0.024162
vt 0.008674 0.187334
vt 0.234243 0.187334
vt 0.234243 0.299331
vt 0.008674 0.299331
vt 0.234243 0.360187
vt 0.008674 0.360187
vt 0.300424 0.187334
vt 0.300424 0.299331
vt 0.694699 0.187334
vt 0.694699 0.299331
vn -1.0000 0.0000 0.0000
vn 0.0000 1.0000 0.0000
vn 0.0000 -0.0000 1.0000
usemtl Kaiser_Bldg_Texture.001
s 1
f 53/65/26 54/66/26 55/67/26 56/68/26
f 56/68/27 55/67/27 57/69/27 58/70/27
f 54/66/28 59/71/28 57/72/28 55/67/28
f 59/71/28 60/73/28 61/74/28 57/72/28
o Kaiser_Bldg_8_Mesh.001
v 0.232920 0.022685 0.032400
v 0.233040 0.022685 0.032400
v 0.233040 0.027071 0.032400
v 0.232920 0.027071 0.032400
v 0.233040 0.022685 0.032280
v 0.233040 0.027071 0.032280
v 0.232920 0.022685 0.032280
v 0.232920 0.027071 0.032280
vt 0.059816 0.416288
vt 0.065120 0.416288
vt 0.065120 0.609857
vt 0.059816 0.609857
vt 0.070424 0.416288
vt 0.070424 0.609857
vt 0.054512 0.416288
vt 0.054512 0.609857
vn 0.0000 0.0000 1.0000
vn 1.0000 0.0000 0.0000
vn -1.0000 0.0000 0.0000
usemtl Kaiser_Bldg_Texture.001
s 1
f 62/75/29 63/76/29 64/77/29 65/78/29
f 63/76/30 66/79/30 67/80/30 64/77/30
f 68/81/31 62/75/31 65/78/31 69/82/31
