# Blender v2.82 (sub 7) OBJ File: ''
# www.blender.org
mtllib koerner.mtl
o koerner13_Mesh.001
v 0.030812 -0.008122 -0.006606
v 0.005798 -0.008122 -0.006676
v 0.005798 0.004806 -0.006676
v 0.030812 0.004806 -0.006606
v 0.004871 0.004806 -0.004294
v 0.030166 0.004806 -0.004026
v 0.030162 0.004806 -0.005944
v 0.006399 0.004806 -0.005988
v 0.004186 0.004806 -0.005069
v 0.004186 -0.008122 -0.005069
v 0.004186 -0.008123 0.009442
v 0.004186 0.004806 0.009442
v 0.004186 0.004806 0.006626
v 0.004186 0.004806 0.000652
v 0.030812 0.004806 -0.004647
v 0.030812 -0.008122 -0.004634
v 0.004858 0.004806 0.009232
v 0.030153 0.004806 0.009279
v 0.030161 0.004806 0.006310
v 0.004866 0.004806 0.006623
v 0.030812 -0.008123 0.009516
v 0.030812 -0.008122 0.006184
v 0.030812 0.004806 0.006134
v 0.030812 0.004806 0.009516
v 0.032681 0.005693 0.000626
v 0.032681 -0.008122 0.000658
v 0.031945 0.004806 0.000994
v 0.004874 0.004806 0.001010
v 0.012385 -0.004561 -0.006634
v 0.012385 0.004679 -0.006634
v 0.012385 0.004679 -0.008607
v 0.012385 -0.004561 -0.008607
v 0.018426 -0.004561 -0.006634
v 0.018426 0.004679 -0.006634
v 0.018426 0.004679 -0.008607
v 0.018426 -0.004561 -0.008607
v 0.024356 0.004558 -0.004131
v 0.004583 0.004558 -0.004182
v 0.004583 0.006551 -0.004182
v 0.024356 0.006551 -0.004131
v 0.004583 0.004558 0.006812
v 0.004583 0.006551 0.006812
v 0.024356 0.004558 0.006863
v 0.024356 0.006551 0.006863
v -0.031432 -0.006143 0.012706
v -0.008984 -0.006143 0.012706
v -0.008984 -0.006143 -0.009512
v -0.031432 -0.006143 -0.009512
v -0.032633 -0.008398 -0.010747
v -0.008598 -0.008398 -0.010747
v -0.008859 -0.012468 -0.011074
v -0.033627 -0.012468 -0.011074
v 0.033627 -0.012469 0.014365
v 0.033627 -0.012468 -0.011074
v 0.032633 -0.008398 -0.010747
v 0.032633 -0.008398 0.013941
v -0.033627 -0.012469 0.014365
v -0.032633 -0.008398 0.013941
v -0.000019 -0.006143 0.012706
v 0.008263 -0.006143 0.012706
v 0.008263 -0.006143 -0.009512
v -0.000019 -0.006143 -0.009512
v -0.000192 -0.012468 -0.014365
v -0.000186 -0.008398 -0.013941
v 0.003806 -0.008398 -0.013941
v 0.003922 -0.012468 -0.014365
v 0.031394 -0.006143 0.012706
v 0.031394 -0.006143 -0.009512
v 0.008078 -0.012468 -0.011074
v 0.007840 -0.008398 -0.010747
v -0.004703 -0.012468 -0.014365
v -0.004564 -0.008398 -0.013941
v 0.000000 -0.008398 -0.010747
v -0.031432 -0.008398 -0.009512
v -0.008984 -0.008398 -0.009512
v -0.031432 -0.008398 0.012706
v -0.000019 -0.008398 -0.009512
v 0.008263 -0.008398 -0.009512
v 0.031394 -0.008398 -0.009512
v 0.031394 -0.008398 0.012706
v -0.004680 0.006567 -0.005180
v -0.026594 0.006567 -0.005241
v -0.025077 0.007875 -0.004319
v -0.006197 0.007875 -0.004266
v -0.025077 0.007875 0.007114
v -0.006197 0.007875 0.007167
v -0.026594 0.006567 0.008028
v -0.004680 0.006567 0.008090
v 0.004503 -0.008302 -0.005054
v 0.002143 -0.008302 -0.005070
v 0.002143 0.006621 -0.005070
v 0.004503 0.006621 -0.005054
v 0.008331 0.008510 -0.007494
v 0.004052 0.011524 -0.007512
v 0.004053 0.011524 0.009012
v 0.008331 0.008509 0.009031
v -0.004809 -0.008302 -0.005120
v -0.004809 -0.008302 0.009339
v -0.004809 0.006621 0.009339
v -0.004809 0.006621 -0.005120
v 0.004503 -0.008302 0.007997
v 0.004503 0.006621 0.007997
v 0.003982 0.011368 -0.005070
v 0.008230 0.008368 -0.005054
v -0.008537 0.008368 0.007930
v -0.008537 0.008368 -0.005120
v 0.008230 0.008368 0.007997
v -0.000006 -0.008302 -0.005086
v -0.002433 -0.008302 -0.005103
v -0.002433 0.006621 -0.005103
v -0.000006 0.006621 -0.005086
v 0.000113 0.012300 -0.005086
v -0.004258 0.011256 -0.005103
v 0.000113 0.012469 0.008997
v 0.000113 0.012469 -0.007527
v -0.004327 0.011413 -0.007545
v -0.004327 0.011412 0.008980
v -0.008634 0.008512 -0.007563
v -0.008634 0.008512 0.008961
v 0.003982 0.011368 -0.007512
v 0.008230 0.008368 -0.007494
v 0.008230 0.008367 0.009031
v -0.004258 0.011256 -0.007545
v 0.000113 0.012300 -0.007527
v -0.008537 0.008368 -0.007563
v -0.008537 0.008367 0.008961
v 0.026449 0.006567 -0.005180
v 0.004534 0.006567 -0.005241
v 0.006051 0.007875 -0.004319
v 0.024932 0.007875 -0.004266
v 0.006051 0.007875 0.007114
v 0.024932 0.007875 0.007167
v 0.004534 0.006567 0.008028
v 0.026449 0.006567 0.008090
v -0.013375 -0.004561 -0.006634
v -0.013375 0.004679 -0.006634
v -0.013375 0.004679 -0.008607
v -0.013375 -0.004561 -0.008607
v -0.007289 -0.004561 -0.006634
v -0.007289 0.004679 -0.006634
v -0.007289 0.004679 -0.008607
v -0.007289 -0.004561 -0.008607
v -0.030579 -0.004561 -0.006634
v -0.030579 0.004679 -0.006634
v -0.030579 0.004679 -0.008607
v -0.030579 -0.004561 -0.008607
v -0.024894 -0.004561 -0.006634
v -0.024894 0.004679 -0.006634
v -0.024894 0.004679 -0.008607
v -0.024894 -0.004561 -0.008607
v -0.018722 -0.004561 -0.006634
v -0.018722 0.004679 -0.006634
v -0.018722 0.004679 -0.008607
v -0.018722 -0.004561 -0.008607
v 0.024401 -0.004561 -0.006634
v 0.024401 0.004679 -0.006634
v 0.024401 0.004679 -0.008607
v 0.024401 -0.004561 -0.008607
v -0.031200 -0.008122 -0.006606
v -0.031200 0.004806 -0.006606
v -0.006646 0.004806 -0.006676
v -0.006646 -0.008122 -0.006676
v -0.005480 0.004806 -0.004344
v -0.030758 0.004806 -0.004286
v -0.030752 0.004806 0.000516
v -0.005474 0.004806 0.000756
v -0.005034 -0.008122 -0.005069
v -0.005034 0.004806 -0.005069
v -0.005034 0.004806 0.000642
v -0.005034 0.004806 0.006320
v -0.005034 0.004806 0.009442
v -0.005034 -0.008123 0.009442
v -0.032381 -0.008122 0.000253
v -0.032381 0.005635 0.000174
v -0.031200 0.004806 -0.004955
v -0.031200 -0.008122 -0.004828
v -0.007044 0.004806 -0.006022
v -0.030764 0.004806 -0.005986
v -0.031200 -0.008123 0.009516
v -0.031200 0.004806 0.009516
v -0.031200 0.004806 0.005273
v -0.031200 -0.008122 0.005305
v -0.005480 0.004806 0.006088
v -0.030758 0.004806 0.005550
v -0.030764 0.004806 0.008830
v -0.005486 0.004806 0.008792
v -0.004241 0.004558 -0.004131
v -0.024014 0.004558 -0.004182
v -0.024014 0.006551 -0.004182
v -0.004241 0.006551 -0.004131
v -0.024014 0.004558 0.006812
v -0.024014 0.006551 0.006812
v -0.004241 0.004558 0.006863
v -0.004241 0.006551 0.006863
v 0.006507 -0.004561 -0.006634
v 0.006507 0.004679 -0.006634
v 0.006507 0.004679 -0.008607
v 0.006507 -0.004561 -0.008607
vt 0.925012 0.008990
vt 0.925012 0.237739
vt 0.806787 0.237739
vt 0.806787 0.008990
vt 0.604432 0.288992
vt 0.334362 0.292461
vt 0.334421 0.272588
vt 0.588130 0.272638
vt 0.934336 0.821007
vt 0.866359 0.821007
vt 0.866359 0.744709
vt 0.934336 0.744709
vt 0.934336 0.759513
vt 0.934335 0.790928
vt 0.237009 0.846069
vt 0.236922 0.761213
vt 0.249869 0.761213
vt 0.249869 0.846069
vt 0.925012 0.258558
vt 0.806787 0.258558
vt 0.603991 0.436169
vt 0.333931 0.436116
vt 0.334034 0.401807
vt 0.604077 0.407613
vt 0.144044 0.761213
vt 0.165913 0.761213
vt 0.166247 0.846069
vt 0.144044 0.846069
vt 0.202397 0.846069
vt 0.202189 0.761213
vt 0.334201 0.345946
vt 0.604258 0.347014
vt 0.334362 0.292461
vt 0.334421 0.272588
vt 0.588130 0.272638
vt 0.604432 0.288992
vt 0.603991 0.436169
vt 0.333931 0.436116
vt 0.334034 0.401807
vt 0.604077 0.407613
vt 0.334201 0.345946
vt 0.604258 0.347014
vt 0.989994 0.008990
vt 0.989994 0.275086
vt 0.963165 0.275086
vt 0.963165 0.008990
vt 0.754636 0.391644
vt 0.669026 0.391644
vt 0.669026 0.376119
vt 0.754636 0.376119
vt 0.806787 0.668762
vt 0.806787 0.502331
vt 0.836970 0.502331
vt 0.836970 0.668762
vt 0.743139 0.273784
vt 0.481184 0.271812
vt 0.483135 0.012537
vt 0.745091 0.014509
vt 0.790948 0.019628
vt 0.790934 0.276880
vt 0.747239 0.274075
vt 0.747253 0.008990
vt 0.598300 0.569576
vt 0.598284 0.445937
vt 0.618643 0.447525
vt 0.618660 0.567510
vt 0.939635 0.501261
vt 0.939607 0.744965
vt 0.899477 0.740893
vt 0.899504 0.504391
vt 0.376573 0.271025
vt 0.279921 0.270298
vt 0.281873 0.011022
vt 0.378525 0.011750
vt 0.562457 0.765299
vt 0.562411 0.804796
vt 0.523873 0.804805
vt 0.522745 0.765308
vt 0.010006 0.268266
vt 0.011958 0.008990
vt 0.747229 0.455357
vt 0.790925 0.452804
vt 0.790911 0.718167
vt 0.747215 0.728800
vt 0.606008 0.765289
vt 0.604675 0.804787
vt 0.790929 0.368897
vt 0.756738 0.409634
vt 0.756741 0.366905
vt 0.474329 0.808316
vt 0.471692 0.768926
vt 0.657058 0.768945
vt 0.654216 0.808335
vt 0.756743 0.320047
vt 0.804158 0.032492
vt 0.804145 0.272750
vt 0.887965 0.729067
vt 0.887989 0.516215
vt 0.804140 0.368695
vt 0.804136 0.457341
vt 0.624669 0.453524
vt 0.624684 0.561510
vt 0.804123 0.704899
vt 0.940825 0.228519
vt 0.940825 0.008990
vt 0.962880 0.008990
vt 0.962880 0.228519
vt 0.866359 0.729064
vt 0.866384 0.516212
vt 0.940825 0.397183
vt 0.940825 0.316186
vt 0.962880 0.316186
vt 0.962880 0.397183
vt 0.252019 0.775399
vt 0.461959 0.775399
vt 0.461959 0.796709
vt 0.252019 0.796709
vt 0.940825 0.623382
vt 0.962880 0.623382
vt 0.860257 0.842224
vt 0.669534 0.842198
vt 0.682761 0.828287
vt 0.847079 0.828310
vt 0.683053 0.728787
vt 0.847372 0.728810
vt 0.665303 0.836267
vt 0.665642 0.720779
vt 0.864830 0.720830
vt 0.864490 0.836318
vt 0.266245 0.467455
vt 0.266245 0.622616
vt 0.010006 0.621898
vt 0.010006 0.466738
vt 0.736802 0.610985
vt 0.712408 0.610985
vt 0.712408 0.456729
vt 0.736802 0.456729
vt 0.269932 0.602889
vt 0.323240 0.598212
vt 0.322140 0.774952
vt 0.265022 0.769185
vt 0.142663 0.778099
vt 0.138853 0.875899
vt 0.038704 0.874885
vt 0.040789 0.773301
vt 0.753769 0.274562
vt 0.752840 0.373039
vt 0.640314 0.377174
vt 0.637271 0.274093
vt 0.731412 0.407656
vt 0.775331 0.438672
vt 0.011197 0.863878
vt 0.012946 0.770827
vt 0.607061 0.374451
vt 0.606791 0.276166
vt 0.690193 0.610985
vt 0.665103 0.610985
vt 0.665102 0.456729
vt 0.690193 0.456729
vt 0.691414 0.398026
vt 0.646240 0.408819
vt 0.365517 0.775399
vt 0.365842 0.597884
vt 0.414083 0.597552
vt 0.414128 0.774849
vt 0.640536 0.610985
vt 0.640535 0.456729
vt 0.602007 0.438672
vt 0.469564 0.600416
vt 0.468666 0.772775
vt 0.240849 0.760631
vt 0.241004 0.722513
vt 0.258896 0.722527
vt 0.258732 0.760646
vt 0.605999 0.390639
vt 0.605730 0.273551
vt 0.241141 0.693346
vt 0.241295 0.660418
vt 0.259187 0.660433
vt 0.259032 0.693361
vt 0.241451 0.622585
vt 0.259352 0.622600
vt 0.010006 0.869647
vt 0.012087 0.759847
vt 0.268448 0.601879
vt 0.322992 0.596447
vt 0.263189 0.768917
vt 0.365834 0.596134
vt 0.414277 0.595769
vt 0.471059 0.599443
vt 0.470518 0.772607
vt 0.860257 0.842224
vt 0.669534 0.842198
vt 0.682761 0.828287
vt 0.847079 0.828310
vt 0.683053 0.728787
vt 0.847372 0.728810
vt 0.665303 0.836267
vt 0.665642 0.720779
vt 0.864830 0.720830
vt 0.864490 0.836318
vt 0.266245 0.467455
vt 0.266245 0.622616
vt 0.010006 0.621898
vt 0.010006 0.466738
vt 0.806787 0.258558
vt 0.922266 0.258558
vt 0.922266 0.481994
vt 0.806787 0.481994
vt 0.237901 0.747504
vt 0.010055 0.745746
vt 0.010206 0.701853
vt 0.238069 0.698632
vt 0.323976 0.530068
vt 0.266912 0.530068
vt 0.266912 0.504860
vt 0.266912 0.479799
vt 0.266912 0.466018
vt 0.323976 0.466018
vt 0.582251 0.765289
vt 0.583196 0.610985
vt 0.644415 0.610985
vt 0.642906 0.765289
vt 0.806787 0.502331
vt 0.922266 0.502331
vt 0.224059 0.761213
vt 0.010006 0.759879
vt 0.664127 0.610985
vt 0.664127 0.765289
vt 0.471692 0.765289
vt 0.471692 0.610985
vt 0.522335 0.610985
vt 0.521951 0.765289
vt 0.238236 0.650047
vt 0.010355 0.658218
vt 0.010480 0.621909
vt 0.238328 0.623329
vt 0.010055 0.745746
vt 0.010206 0.701853
vt 0.238069 0.698632
vt 0.237901 0.747504
vt 0.224059 0.761213
vt 0.010006 0.759879
vt 0.010355 0.658218
vt 0.010480 0.621909
vt 0.238328 0.623329
vt 0.238236 0.650047
vt 0.989994 0.008990
vt 0.989994 0.275086
vt 0.963165 0.275086
vt 0.963165 0.008990
vt 0.754636 0.391644
vt 0.669026 0.391644
vt 0.669026 0.376119
vt 0.754636 0.376119
vt 0.806787 0.668762
vt 0.806787 0.502331
vt 0.836970 0.502331
vt 0.836970 0.668762
vt 1.003993 0.998021
vt 0.781204 0.998021
vt 0.781204 0.952870
vt 1.003993 0.952870
vt 1.003993 0.998021
vt 0.781204 0.998021
vt 0.781204 0.952870
vt 1.003993 0.952870
vt 1.003993 0.998021
vt 0.781204 0.998021
vt 0.781204 0.952870
vt 1.003993 0.952870
vt 1.003993 0.998021
vt 0.781204 0.998021
vt 0.781204 0.952870
vt 1.003993 0.952870
vt 1.003993 0.998021
vt 0.781204 0.998021
vt 0.781204 0.952870
vt 1.003993 0.952870
vt 1.003993 0.998021
vt 0.781204 0.998021
vt 0.781204 0.952870
vt 1.003993 0.952870
vt 1.003993 0.998021
vt 0.781204 0.998021
vt 0.781204 0.952870
vt 1.003993 0.952870
vt 1.003993 0.998021
vt 0.781204 0.998021
vt 0.781204 0.952870
vt 1.003993 0.952870
vt 1.003993 0.998021
vt 0.781204 0.998021
vt 0.781204 0.952870
vt 1.003993 0.952870
vn 0.0028 0.0000 -1.0000
vn -0.0000 1.0000 0.0000
vn -0.0147 0.9999 0.0030
vn -1.0000 0.0000 0.0000
vn 0.9663 -0.0004 -0.2575
vn 0.9678 -0.0003 -0.2519
vn 1.0000 0.0000 0.0000
vn -0.7060 0.0000 -0.7082
vn -0.0058 1.0000 -0.0013
vn 0.9781 0.0006 0.2083
vn 0.9765 0.0005 0.2157
vn 1.0000 0.0002 0.0002
vn 1.0000 0.0002 0.0005
vn -0.0236 0.9997 -0.0008
vn -0.3352 0.9397 0.0673
vn -0.4479 0.8886 -0.0987
vn -0.5166 0.8558 0.0258
vn 0.0026 0.0000 -1.0000
vn 0.0000 0.0801 -0.9968
vn 0.9714 0.2373 0.0000
vn -0.9714 0.2373 0.0000
vn 0.0000 0.1036 -0.9946
vn 0.6179 0.0993 -0.7800
vn -0.6175 0.1023 -0.7799
vn 0.0000 0.0000 -1.0000
vn 0.0023 0.5745 -0.8185
vn -0.6534 0.7570 0.0000
vn 0.6530 0.7573 0.0000
vn 0.0000 -1.0000 -0.0000
vn 0.0068 0.0000 -1.0000
vn 0.0071 0.0000 -1.0000
vn 0.0062 -0.0006 -1.0000
vn 0.0058 -0.0013 -1.0000
vn 0.5759 0.8175 -0.0000
vn 0.4336 0.9011 -0.0000
vn 0.4344 0.9007 0.0001
vn -0.9854 -0.1700 -0.0000
vn -0.9779 -0.2091 -0.0000
vn 0.9759 -0.2182 -0.0000
vn 0.9759 -0.2182 0.0002
vn 0.0044 -0.0019 -1.0000
vn 0.0035 -0.0030 -1.0000
vn -0.2685 0.8735 0.4061
vn -0.3928 0.8286 -0.3988
vn 0.4244 -0.9055 -0.0000
vn 0.0072 0.0000 -1.0000
vn 0.0058 0.0009 -1.0000
vn 0.0061 -0.0000 -1.0000
vn 0.0050 -0.0001 -1.0000
vn 0.0043 0.0020 -1.0000
vn -0.0127 0.9999 -0.0000
vn -0.0139 0.9999 -0.0001
vn -0.4126 0.9109 -0.0000
vn -0.4118 0.9113 -0.0000
vn 0.0059 0.0012 -1.0000
vn 0.0037 0.0032 -1.0000
vn -0.5586 0.8294 0.0000
vn -0.5769 -0.8168 0.0000
vn -0.4363 -0.8998 -0.0001
vn -0.4355 -0.9002 -0.0000
vn 0.7004 -0.6605 0.2706
vn 0.4669 -0.7972 0.3827
vn 0.4669 -0.7972 -0.3827
vn 0.0131 -0.9999 0.0000
vn 0.4135 -0.9105 -0.0000
vn 0.4143 -0.9101 0.0001
vn 0.0142 -0.9999 0.0001
vn 0.5594 -0.8289 0.0000
vn -0.4672 0.7971 -0.3827
vn -0.4672 0.7971 0.3827
vn 0.0030 -0.0017 -1.0000
vn 0.0033 -0.0013 -1.0000
vn 0.8168 -0.5769 -0.0000
vn 0.0038 0.0000 -1.0000
vn 0.0035 0.0013 -1.0000
vn 0.0031 0.0017 -1.0000
vn -0.8289 -0.5594 -0.0000
vn -0.6530 0.7573 0.0000
vn -0.0029 0.0000 -1.0000
vn 0.0210 0.9998 -0.0017
vn 0.0157 0.9999 0.0002
vn -1.0000 -0.0004 0.0007
vn -1.0000 -0.0004 -0.0002
vn -0.9845 -0.0009 -0.1752
vn -0.9850 -0.0013 -0.1723
vn 0.7060 0.0000 -0.7082
vn -0.9911 0.0006 0.1332
vn -0.9918 0.0005 0.1276
vn 0.0060 1.0000 0.0006
vn 0.2818 0.9592 -0.0231
vn 0.3760 0.9266 -0.0046
vn 0.3231 0.9459 0.0304
usemtl library.001
s 1
f 1/1/1 2/2/1 3/3/1 4/4/1
f 5/5/2 6/6/3 7/7/2 8/8/2
f 9/9/4 10/10/4 11/11/4 12/12/4 13/13/4 14/14/4
f 15/15/5 16/16/6 1/17/7 4/18/7
f 2/2/8 10/19/8 9/20/8 3/3/8
f 17/21/2 18/22/2 19/23/9 20/24/2
f 21/25/7 22/26/10 23/27/11 24/28/7
f 25/29/12 26/30/13 16/16/6 15/15/5
f 27/31/14 6/6/3 5/5/2 28/32/2
f 19/23/9 27/31/14 28/32/2 20/24/2
f 23/27/11 22/26/10 26/30/13 25/29/12
f 15/33/15 4/34/2 7/7/2 6/6/3
f 4/34/2 3/35/2 8/8/2 7/7/2
f 3/35/2 9/36/2 5/5/2 8/8/2
f 12/37/2 24/38/2 18/22/2 17/21/2
f 24/38/2 23/39/16 19/23/9 18/22/2
f 13/40/2 12/37/2 17/21/2 20/24/2
f 25/41/17 15/33/15 6/6/3 27/31/14
f 9/36/2 14/42/2 28/32/2 5/5/2
f 23/39/16 25/41/17 27/31/14 19/23/9
f 14/42/2 13/40/2 20/24/2 28/32/2
f 37/43/18 38/44/18 39/45/18 40/46/18
f 38/47/4 41/48/4 42/49/4 39/50/4
f 43/51/7 37/52/7 40/53/7 44/54/7
f 45/55/2 46/56/2 47/57/2 48/58/2
f 49/59/19 50/60/19 51/61/19 52/62/19
f 53/63/20 54/64/20 55/65/20 56/66/20
f 52/67/21 57/68/21 58/69/21 49/70/21
f 59/71/2 60/72/2 61/73/2 62/74/2
f 63/75/22 64/76/22 65/77/22 66/78/22
f 60/72/2 67/79/2 68/80/2 61/73/2
f 69/81/19 70/82/19 55/83/19 54/84/19
f 46/56/2 59/71/2 62/74/2 47/57/2
f 71/85/22 72/86/22 64/76/22 63/75/22
f 73/87/2 70/82/2 65/88/2 64/89/2
f 70/90/23 69/91/23 66/78/23 65/77/23
f 51/92/24 50/93/24 72/86/24 71/85/24
f 50/60/2 73/87/2 64/89/2 72/94/2
f 50/60/2 49/59/2 74/95/2 75/96/2
f 49/70/2 58/69/2 76/97/2 74/98/2
f 70/82/2 73/87/2 77/99/2 78/100/2
f 56/66/2 55/65/2 79/101/2 80/102/2
f 55/83/2 70/82/2 78/100/2 79/103/2
f 73/87/2 50/60/2 75/96/2 77/99/2
f 75/104/25 74/105/25 48/106/25 47/107/25
f 74/98/4 76/97/4 45/108/4 48/109/4
f 78/110/25 77/111/25 62/112/25 61/113/25
f 80/114/7 79/115/7 68/116/7 67/117/7
f 79/118/25 78/110/25 61/113/25 68/119/25
f 77/111/25 75/104/25 47/107/25 62/112/25
f 81/120/26 82/121/26 83/122/26 84/123/26
f 84/123/2 83/122/2 85/124/2 86/125/2
f 82/126/27 87/127/27 85/124/27 83/122/27
f 88/128/28 81/129/28 84/123/28 86/125/28
f 81/130/29 88/131/29 87/132/29 82/133/29
f 89/134/30 90/135/31 91/136/32 92/137/33
f 93/138/34 94/139/35 95/140/36 96/141/34
f 97/142/4 98/143/4 99/144/37 100/145/38
f 101/146/7 89/147/7 92/148/39 102/149/40
f 92/137/33 91/136/32 103/150/41 104/151/42
f 100/145/38 99/144/37 105/152/43 106/153/44
f 102/149/40 92/148/39 104/154/45 107/155/45
f 108/156/46 109/157/31 110/158/47 111/159/48
f 112/160/49 111/159/48 110/158/47 113/161/50
f 114/162/51 115/163/52 116/164/53 117/165/54
f 109/157/31 97/166/46 100/167/55 110/158/47
f 113/161/50 110/158/47 100/167/55 106/168/56
f 117/165/54 116/164/53 118/169/57 119/170/57
f 90/135/31 108/156/46 111/159/48 91/136/32
f 103/150/41 91/136/32 111/159/48 112/160/49
f 95/140/36 94/139/35 115/163/52 114/162/51
f 104/171/58 103/172/59 120/173/60 121/174/58
f 107/155/61 104/154/61 121/175/62 122/176/63
f 112/177/64 113/178/65 123/179/66 124/180/67
f 113/178/65 106/181/68 125/182/68 123/179/66
f 106/153/44 105/152/43 126/183/69 125/184/70
f 103/172/59 112/177/64 124/180/67 120/173/60
f 121/185/71 120/186/72 94/139/72 93/138/71
f 122/187/73 121/185/73 93/138/73 96/141/73
f 124/188/74 123/189/75 116/164/75 115/163/74
f 123/189/75 125/190/76 118/169/76 116/164/75
f 125/190/77 126/191/77 119/170/77 118/169/77
f 120/186/72 124/188/74 115/163/74 94/139/72
f 127/192/26 128/193/26 129/194/26 130/195/26
f 130/195/2 129/194/2 131/196/2 132/197/2
f 128/198/78 133/199/78 131/196/78 129/194/78
f 134/200/28 127/201/28 130/195/28 132/197/28
f 127/202/29 134/203/29 133/204/29 128/205/29
f 159/206/79 160/207/79 161/208/79 162/209/79
f 163/210/2 164/211/80 165/212/81 166/213/2
f 167/214/7 168/215/7 169/216/7 170/217/7 171/218/7 172/219/7
f 173/220/82 174/221/83 175/222/84 176/223/85
f 167/224/86 162/209/86 161/208/86 168/225/86
f 177/226/2 178/227/2 164/211/80 163/210/2
f 176/223/85 175/222/84 160/228/4 159/229/4
f 179/230/4 180/231/4 181/232/87 182/233/88
f 183/234/2 184/235/89 185/236/2 186/237/2
f 182/233/88 181/232/87 174/221/83 173/220/82
f 166/213/2 165/212/81 184/235/89 183/234/2
f 175/238/90 174/239/91 165/212/81 164/211/80
f 169/240/2 168/241/2 163/210/2 166/213/2
f 161/242/2 160/243/2 178/227/2 177/226/2
f 160/243/2 175/238/90 164/211/80 178/227/2
f 168/241/2 161/242/2 177/226/2 163/210/2
f 181/244/92 180/245/2 185/236/2 184/235/89
f 180/245/2 171/246/2 186/237/2 185/236/2
f 171/246/2 170/247/2 183/234/2 186/237/2
f 174/239/91 181/244/92 184/235/89 165/212/81
f 170/247/2 169/240/2 166/213/2 183/234/2
f 187/248/18 188/249/18 189/250/18 190/251/18
f 188/252/4 191/253/4 192/254/4 189/255/4
f 193/256/7 187/257/7 190/258/7 194/259/7
usemtl library2.001
f 29/260/4 30/261/4 31/262/4 32/263/4
f 33/264/4 34/265/4 35/266/4 36/267/4
f 135/268/4 136/269/4 137/270/4 138/271/4
f 139/272/4 140/273/4 141/274/4 142/275/4
f 143/276/4 144/277/4 145/278/4 146/279/4
f 147/280/4 148/281/4 149/282/4 150/283/4
f 151/284/4 152/285/4 153/286/4 154/287/4
f 155/288/4 156/289/4 157/290/4 158/291/4
f 195/292/4 196/293/4 197/294/4 198/295/4
