# Blender v2.82 (sub 7) OBJ File: 'ubc_buildings - Copy (2).blend'
# www.blender.org
mtllib Old_Auditorium.mtl
o Old_Auditorium_10_Mesh.001
v -0.287880 0.019676 0.103507
v -0.297530 0.019676 0.103756
v -0.297530 0.026687 0.103756
v -0.287880 0.026687 0.103507
v -0.297448 0.027513 0.106922
v -0.287798 0.027513 0.106672
v -0.297448 0.019676 0.106922
v -0.287798 0.019676 0.106672
v -0.297355 0.019676 0.110534
v -0.297355 0.026687 0.110534
v -0.287704 0.026687 0.110285
v -0.287704 0.019676 0.110285
v -0.297264 0.019676 0.114029
v -0.297264 0.026687 0.114029
v -0.287614 0.026687 0.113779
v -0.287614 0.019676 0.113779
vt 0.176600 0.013549
vt 0.333909 0.013549
vt 0.333909 0.138963
vt 0.176600 0.138963
vt 0.333909 0.192640
vt 0.176600 0.192640
vt 0.385514 0.013549
vt 0.385514 0.153737
vt 0.124996 0.013549
vt 0.124996 0.153737
vt 0.444394 0.013549
vt 0.444394 0.138963
vt 0.333909 0.253345
vt 0.176600 0.253345
vt 0.066116 0.013549
vt 0.066116 0.138963
vt 0.501359 0.013549
vt 0.501359 0.138963
vt 0.333909 0.310311
vt 0.176600 0.310311
vt 0.009150 0.013549
vt 0.009150 0.138963
vn -0.0258 0.0000 -0.9997
vn -0.0065 0.9676 -0.2523
vn -0.0000 1.0000 -0.0000
vn -0.9997 0.0000 0.0259
vn -0.9997 0.0000 0.0258
vn 0.9997 0.0000 -0.0260
vn 0.9997 0.0000 -0.0259
vn 0.0030 0.9933 0.1153
vn -0.9997 0.0000 0.0260
vn 0.9997 0.0000 -0.0258
usemtl lambert36.001
s 1
f 1/1/1 2/2/1 3/3/1 4/4/1
f 4/4/2 3/3/2 5/5/3 6/6/3
f 2/2/4 7/7/5 5/8/5 3/3/4
f 8/9/6 1/1/7 4/4/7 6/10/6
f 7/7/5 9/11/4 10/12/4 5/8/5
f 6/6/3 5/5/3 10/13/8 11/14/8
f 12/15/7 8/9/6 6/10/6 11/16/7
f 9/11/4 13/17/9 14/18/9 10/12/4
f 11/14/8 10/13/8 14/19/3 15/20/3
f 16/21/10 12/15/7 11/16/7 15/22/10
o Old_Auditorium_11_Mesh.001
v -0.281791 0.019676 0.103349
v -0.281791 0.026687 0.103349
v -0.272140 0.026687 0.103099
v -0.272140 0.019676 0.103099
v -0.281709 0.027513 0.106515
v -0.272058 0.027513 0.106265
v -0.272058 0.019676 0.106265
v -0.281709 0.019676 0.106515
v -0.271965 0.026687 0.109877
v -0.271965 0.019676 0.109877
v -0.281615 0.026687 0.110127
v -0.281615 0.019676 0.110127
v -0.271874 0.026687 0.113372
v -0.271874 0.019676 0.113372
v -0.281525 0.026687 0.113622
v -0.281525 0.019676 0.113622
vt 0.176600 0.013549
vt 0.176600 0.138963
vt 0.333909 0.138963
vt 0.333909 0.013549
vt 0.176600 0.192640
vt 0.333909 0.192640
vt 0.385514 0.153737
vt 0.385514 0.013549
vt 0.124996 0.013549
vt 0.124996 0.153737
vt 0.444394 0.138963
vt 0.444394 0.013549
vt 0.176600 0.253345
vt 0.333909 0.253345
vt 0.066116 0.013549
vt 0.066116 0.138963
vt 0.501359 0.138963
vt 0.501359 0.013549
vt 0.176600 0.310311
vt 0.333909 0.310311
vt 0.009150 0.013549
vt 0.009150 0.138963
vn -0.0259 0.0000 -0.9997
vn -0.0065 0.9676 -0.2523
vn 0.0000 1.0000 0.0000
vn 0.9997 0.0000 -0.0259
vn 0.9997 -0.0000 -0.0258
vn -0.9997 -0.0000 0.0260
vn -0.9997 -0.0000 0.0259
vn 0.0030 0.9933 0.1153
vn 0.9997 0.0000 -0.0260
vn -0.9997 -0.0000 0.0257
usemtl lambert36.001
s 1
f 17/23/11 18/24/11 19/25/11 20/26/11
f 18/24/12 21/27/13 22/28/13 19/25/12
f 20/26/14 19/25/14 22/29/15 23/30/15
f 24/31/16 21/32/16 18/24/17 17/23/17
f 23/30/15 22/29/15 25/33/14 26/34/14
f 21/27/13 27/35/18 25/36/18 22/28/13
f 28/37/17 27/38/17 21/32/16 24/31/16
f 26/34/14 25/33/14 29/39/19 30/40/19
f 27/35/18 31/41/13 29/42/13 25/36/18
f 32/43/20 31/44/20 27/38/17 28/37/17
o Old_Auditorium_1_Mesh.001
v -0.278948 0.019676 0.110446
v -0.289841 0.019676 0.110728
v -0.289841 0.027180 0.110728
v -0.278948 0.027180 0.110446
v -0.288997 0.027180 0.143320
v -0.278104 0.027180 0.143038
v -0.288997 0.020169 0.143320
v -0.278104 0.020169 0.143038
vt 0.376007 0.873243
vt 0.376007 0.710393
vt 0.499114 0.710393
vt 0.499114 0.873243
vt 0.986380 0.710393
vt 0.986380 0.873243
vt 0.499114 0.591327
vt 0.986380 0.591327
vt 0.986380 0.992309
vt 0.499114 0.992309
vn -0.0259 0.0000 -0.9997
vn 0.0000 1.0000 0.0000
vn -0.9997 0.0000 0.0259
vn 0.9997 0.0000 -0.0259
usemtl lambert36.001
s 1
f 33/45/21 34/46/21 35/47/21 36/48/21
f 36/48/22 35/47/22 37/49/22 38/50/22
f 34/51/23 39/52/23 37/49/23 35/47/23
f 40/53/24 33/54/24 36/48/24 38/50/24
o Old_Auditorium_2_Mesh.001
v -0.280180 0.026866 0.111552
v -0.288554 0.026866 0.111769
v -0.288554 0.028628 0.111769
v -0.280180 0.028628 0.111552
v -0.287897 0.028628 0.137140
v -0.279523 0.028628 0.136923
v -0.287897 0.026866 0.137140
v -0.279523 0.026866 0.136923
vt 0.043676 0.572294
vt 0.172020 0.572294
vt 0.172020 0.601922
vt 0.043676 0.601922
vt 0.172020 0.990758
vt 0.043676 0.990758
vt 0.201648 0.601922
vt 0.201648 0.990758
vt 0.014048 0.990758
vt 0.014048 0.601922
vn -0.0259 0.0000 -0.9997
vn 0.0000 1.0000 0.0000
vn -0.9997 0.0000 0.0259
vn 0.9997 0.0000 -0.0259
usemtl lambert36.001
s 1
f 41/55/25 42/56/25 43/57/25 44/58/25
f 44/58/26 43/57/26 45/59/26 46/60/26
f 42/61/27 47/62/27 45/59/27 43/57/27
f 48/63/28 41/64/28 44/58/28 46/60/28
o Old_Auditorium_3_Mesh.001
v -0.281616 0.019676 0.106003
v -0.288044 0.019676 0.106170
v -0.288044 0.023341 0.106170
v -0.281616 0.023341 0.106003
v -0.287993 0.023341 0.108170
v -0.281564 0.023341 0.108004
vt 0.831866 0.421695
vt 0.989270 0.421695
vt 0.989269 0.520175
vt 0.831866 0.520175
vt 0.989269 0.569162
vt 0.831865 0.569163
vn -0.0260 0.0000 -0.9997
vn 0.0000 1.0000 0.0000
usemtl lambert36.001
s 1
f 49/65/29 50/66/29 51/67/29 52/68/29
f 52/68/30 51/67/30 53/69/30 54/70/30
o Old_Auditorium_4_Mesh.001
v -0.281426 0.022890 0.107597
v -0.288070 0.022890 0.107769
v -0.288070 0.026535 0.107769
v -0.281426 0.026535 0.107597
v -0.287914 0.026535 0.113774
v -0.281271 0.026535 0.113602
vt 0.225433 0.530677
vt 0.354079 0.530677
vt 0.354079 0.608131
vt 0.225433 0.608131
vt 0.354079 0.724412
vt 0.225433 0.724412
vn -0.0259 0.0000 -0.9997
vn 0.0000 1.0000 0.0000
usemtl lambert36.001
s 1
f 55/71/31 56/72/31 57/73/31 58/74/31
f 58/74/32 57/73/32 59/75/32 60/76/32
o Old_Auditorium_5_Mesh.001
v -0.288905 0.019676 0.134442
v -0.294610 0.019676 0.134589
v -0.294610 0.024733 0.134589
v -0.288905 0.024733 0.134442
v -0.294531 0.024733 0.137646
v -0.288826 0.024733 0.137499
v -0.294531 0.019676 0.137646
v -0.294437 0.019676 0.141264
v -0.294335 0.019676 0.145204
v -0.294335 0.024733 0.145204
v -0.294437 0.025868 0.141264
v -0.288733 0.025868 0.141117
v -0.288631 0.024733 0.145056
vt 0.978152 0.025965
vt 0.978313 0.141656
vt 0.865776 0.141812
vt 0.865615 0.026122
vt 0.803777 0.141899
vt 0.803616 0.026208
vt 0.978399 0.203655
vt 0.865862 0.203812
vt 0.978501 0.277030
vt 0.978613 0.356926
vt 0.866076 0.357083
vt 0.840712 0.277222
vt 0.726017 0.026317
vt 0.726178 0.142007
vt 0.642387 0.142124
vt 0.642226 0.026433
vn -0.0258 0.0000 -0.9997
vn 0.0000 1.0000 0.0000
vn -0.0043 0.9859 -0.1675
vn -0.9997 0.0000 0.0258
vn -0.9997 0.0000 0.0259
vn 0.0072 0.9609 0.2767
usemtl lambert36.001
s 1
f 61/77/33 62/78/33 63/79/33 64/80/33
f 64/80/34 63/79/34 65/81/35 66/82/35
f 62/78/36 67/83/37 65/84/37 63/79/36
f 68/85/37 69/86/37 70/87/37 71/88/37
f 72/89/34 71/90/34 70/91/38 73/92/38
f 67/83/37 68/85/37 71/88/37 65/84/37
f 66/82/35 65/81/35 71/90/34 72/89/34
o Old_Auditorium_6_Mesh.001
v -0.278454 0.019676 0.134171
v -0.278454 0.024733 0.134171
v -0.272750 0.024733 0.134023
v -0.272750 0.019676 0.134023
v -0.278375 0.024733 0.137228
v -0.272670 0.024733 0.137080
v -0.272670 0.019676 0.137080
v -0.272577 0.019676 0.140698
v -0.272577 0.025868 0.140698
v -0.272475 0.024733 0.144638
v -0.272475 0.019676 0.144638
v -0.278281 0.025868 0.140846
v -0.278179 0.024733 0.144786
vt 0.978152 0.025965
vt 0.865615 0.026122
vt 0.865776 0.141812
vt 0.978313 0.141656
vt 0.803616 0.026208
vt 0.803777 0.141899
vt 0.865862 0.203812
vt 0.978399 0.203655
vt 0.978501 0.277030
vt 0.840712 0.277222
vt 0.866076 0.357083
vt 0.978613 0.356926
vt 0.726017 0.026317
vt 0.642226 0.026433
vt 0.642387 0.142124
vt 0.726178 0.142007
vn -0.0259 0.0000 -0.9997
vn 0.0000 1.0000 -0.0000
vn -0.0043 0.9859 -0.1675
vn 0.9997 0.0000 -0.0262
vn 0.9997 0.0000 -0.0259
vn 0.9997 0.0000 -0.0258
vn 0.0072 0.9609 0.2766
usemtl lambert36.001
s 1
f 74/93/39 75/94/39 76/95/39 77/96/39
f 75/94/40 78/97/41 79/98/41 76/95/40
f 77/96/42 76/95/42 79/99/43 80/100/43
f 81/101/44 82/102/44 83/103/43 84/104/43
f 85/105/40 86/106/45 83/107/45 82/108/40
f 80/100/43 79/99/43 82/102/44 81/101/44
f 78/97/41 85/105/40 82/108/40 79/98/41
o Old_Auditorium_7_Mesh.001
v -0.278448 0.026733 0.136739
v -0.278822 0.026733 0.136748
v -0.278807 0.031804 0.136748
v -0.278448 0.031737 0.136739
v -0.278723 0.032820 0.139993
v -0.278364 0.032753 0.139983
v -0.289008 0.026733 0.137012
v -0.288924 0.026733 0.140257
v -0.288924 0.032753 0.140257
v -0.289008 0.031737 0.137012
v -0.278364 0.026733 0.139983
v -0.288840 0.026733 0.143477
v -0.288840 0.031737 0.143477
v -0.278640 0.031804 0.143213
v -0.278281 0.031737 0.143203
v -0.278281 0.026733 0.143203
v -0.283958 0.026733 0.136881
v -0.288388 0.026733 0.136996
v -0.288361 0.031516 0.136995
v -0.283739 0.032483 0.136876
v -0.283655 0.032483 0.140120
v -0.288277 0.031516 0.140240
v -0.283571 0.032483 0.143340
v -0.288193 0.031516 0.143460
v -0.288626 0.026733 0.137002
v -0.288610 0.031811 0.137002
v -0.288526 0.032828 0.140246
v -0.288442 0.031811 0.143466
v -0.279154 0.026733 0.136757
v -0.279126 0.031521 0.136756
v -0.279042 0.031521 0.140001
v -0.278958 0.031521 0.143221
vt 0.353456 0.333229
vt 0.363034 0.333233
vt 0.362593 0.475570
vt 0.353397 0.473680
vt 0.026478 0.404815
vt 0.028079 0.398499
vt 0.085241 0.412637
vt 0.085273 0.418976
vt 0.623573 0.333342
vt 0.706572 0.333377
vt 0.706501 0.502363
vt 0.623514 0.473793
vt 0.270457 0.333194
vt 0.270386 0.502181
vt 0.788939 0.333411
vt 0.788881 0.473862
vt 0.141088 0.398056
vt 0.142780 0.404348
vt 0.188089 0.333160
vt 0.188031 0.473611
vt 0.494414 0.333288
vt 0.607719 0.333335
vt 0.606973 0.467584
vt 0.488731 0.494694
vt 0.084405 0.305096
vt 0.026096 0.305629
vt 0.026915 0.219729
vt 0.083583 0.222711
vt 0.142233 0.304461
vt 0.140829 0.219345
vt 0.613817 0.333338
vt 0.613334 0.475885
vt 0.083560 0.197565
vt 0.027369 0.212360
vt 0.025484 0.205393
vt 0.083537 0.190555
vt 0.140240 0.211973
vt 0.142057 0.204987
vt 0.371517 0.333237
vt 0.370741 0.467635
vt 0.027482 0.390508
vt 0.085208 0.387414
vt 0.141538 0.390064
vn -0.0258 -0.0000 -0.9997
vn -0.0257 0.0000 -0.9997
vn 0.1674 0.9396 -0.2985
vn -0.7420 0.6565 -0.1360
vn -0.6898 0.7238 0.0178
vn 0.1836 0.9830 -0.0048
vn -0.9997 0.0000 0.0259
vn -0.9997 0.0000 0.0260
vn 0.9997 0.0000 -0.0258
vn 0.9997 0.0000 -0.0259
vn -0.9997 0.0000 0.0257
vn -0.7338 0.6563 0.1753
vn 0.1830 0.9388 0.2917
vn -0.0259 0.0000 -0.9997
vn -0.0263 0.0000 -0.9997
vn -0.0003 1.0000 0.0000
vn -0.0337 0.9994 -0.0071
vn -0.0335 0.9994 0.0011
vn -0.0334 0.9994 0.0089
vn -0.0262 0.0000 -0.9997
vn -0.0256 0.0000 -0.9997
vn -0.0260 0.0000 -0.9997
vn 0.7027 0.7112 -0.0183
vn 0.7573 0.6288 -0.1763
vn -0.1835 0.9394 -0.2896
vn -0.1844 0.9828 0.0048
vn 0.7654 0.6286 0.1380
vn -0.1684 0.9387 0.3007
vn 0.0344 0.9993 -0.0110
vn 0.0347 0.9994 -0.0007
vn 0.0349 0.9993 0.0093
usemtl lambert36.001
s 1
f 87/109/46 88/110/47 89/111/46 90/112/46
f 90/113/48 89/114/49 91/115/50 92/116/51
f 93/117/52 94/118/53 95/119/53 96/120/52
f 97/121/54 87/109/55 90/112/55 92/122/54
f 94/118/53 98/123/56 99/124/56 95/119/53
f 92/116/51 91/115/50 100/125/57 101/126/58
f 102/127/54 97/121/54 92/122/54 101/128/54
f 103/129/59 104/130/60 105/131/59 106/132/59
f 107/133/61 106/134/61 105/135/62 108/136/63
f 109/137/61 107/133/61 108/136/63 110/138/64
f 111/139/65 93/117/66 96/120/66 112/140/67
f 113/141/68 112/142/69 96/143/70 95/144/71
f 114/145/72 113/141/68 95/144/71 99/146/73
f 88/110/47 115/147/67 116/148/67 89/111/46
f 91/115/50 89/114/49 116/149/74 117/150/75
f 100/125/57 91/115/50 117/150/75 118/151/76
f 115/147/67 103/129/59 106/132/59 116/148/67
f 117/150/75 116/149/74 106/134/61 107/133/61
f 118/151/76 117/150/75 107/133/61 109/137/61
f 104/130/60 111/139/65 112/140/67 105/131/59
f 108/136/63 105/135/62 112/142/69 113/141/68
f 110/138/64 108/136/63 113/141/68 114/145/72
o Old_Auditorium_8_Mesh.001
v -0.290940 0.022870 0.123277
v -0.290892 0.022870 0.125108
v -0.290892 0.023160 0.125108
v -0.290940 0.023640 0.123277
v -0.289354 0.022870 0.121391
v -0.290987 0.022870 0.121433
v -0.290987 0.023160 0.121433
v -0.289354 0.023160 0.121391
v -0.289259 0.023160 0.125065
v -0.289306 0.023640 0.123234
v -0.289354 0.019676 0.121391
v -0.290987 0.019676 0.121433
v -0.290940 0.019676 0.123277
v -0.290892 0.019676 0.125108
vt 0.579556 0.255680
vt 0.622342 0.255935
vt 0.622254 0.270738
vt 0.579468 0.270483
vt 0.498328 0.255195
vt 0.536485 0.255423
vt 0.536397 0.270226
vt 0.498240 0.269998
vt 0.622026 0.308895
vt 0.579240 0.308640
vt 0.536170 0.308383
vt 0.498817 0.173290
vt 0.536974 0.173518
vt 0.580044 0.173775
vt 0.622831 0.174030
vn -0.9997 0.0000 0.0258
vn -0.9997 0.0000 0.0262
vn -0.9997 0.0000 0.0259
vn -0.0257 0.0000 -0.9997
vn 0.0002 1.0000 0.0000
vn -0.0000 1.0000 -0.0000
vn -0.0001 1.0000 0.0000
vn -0.9997 0.0000 0.0255
usemtl lambert36.001
s 1
f 119/152/77 120/153/78 121/154/79 122/155/77
f 123/156/80 124/157/80 125/158/80 126/159/80
f 127/160/81 128/161/82 122/155/82 121/154/82
f 128/161/82 126/162/82 125/158/83 122/155/82
f 124/157/84 119/152/77 122/155/77 125/158/84
f 129/163/80 130/164/80 124/157/80 123/156/80
f 130/164/84 131/165/77 119/152/77 124/157/84
f 131/165/77 132/166/78 120/153/78 119/152/77
o Old_Auditorium_9_Mesh.001
v -0.283572 0.026411 0.109269
v -0.285284 0.026411 0.109313
v -0.285284 0.028628 0.109313
v -0.283572 0.028628 0.109269
v -0.285220 0.028628 0.111785
v -0.283508 0.028628 0.111740
v -0.285220 0.026411 0.111785
v -0.283508 0.026411 0.111740
vt 0.281139 0.885293
vt 0.317264 0.885293
vt 0.317264 0.936619
vt 0.281139 0.936619
vt 0.317264 0.988772
vt 0.281139 0.988772
vt 0.369417 0.885293
vt 0.369417 0.936619
vt 0.228986 0.885293
vt 0.228986 0.936619
vn -0.0257 0.0000 -0.9997
vn 0.0000 1.0000 -0.0000
vn -0.9997 0.0000 0.0259
vn 0.9997 0.0000 -0.0259
usemtl lambert36.001
s 1
f 133/167/85 134/168/85 135/169/85 136/170/85
f 136/170/86 135/169/86 137/171/86 138/172/86
f 134/168/87 139/173/87 137/174/87 135/169/87
f 140/175/88 133/167/88 136/170/88 138/176/88
