# Blender v2.82 (sub 7) OBJ File: 'ubc_buildings - Copy (2).blend'
# www.blender.org
mtllib scarfe.mtl
o scarfe10_Mesh.001
v 0.059019 0.023036 0.106837
v 0.070043 0.023036 0.106837
v 0.070043 0.040960 0.106837
v 0.059019 0.040960 0.106837
v 0.070043 0.040960 0.067569
v 0.059019 0.040960 0.067569
v 0.070043 0.023036 0.067569
v 0.059019 0.023036 0.067569
vt 0.087976 0.377045
vt 0.009623 0.375854
vt 0.011561 0.248454
vt 0.089914 0.249646
vt 0.683820 0.566758
vt 0.682176 0.487030
vt 0.966189 0.481170
vt 0.967833 0.560898
vt 0.369030 0.253891
vt 0.447384 0.255083
vt 0.445446 0.382483
vt 0.367092 0.381291
vt 0.724562 0.386729
vt 0.726500 0.259329
vn 0.0000 0.0000 1.0000
vn 0.0000 1.0000 0.0000
vn 0.0000 0.0000 -1.0000
vn 1.0000 0.0000 0.0000
vn -1.0000 0.0000 0.0000
usemtl scarfetex.001
s 1
f 1/1/1 2/2/1 3/3/1 4/4/1
f 4/5/2 3/6/2 5/7/2 6/8/2
f 6/9/3 5/10/3 7/11/3 8/12/3
f 2/13/4 7/11/4 5/10/4 3/14/4
f 8/12/5 1/1/5 4/4/5 6/9/5
o scarfe11_Mesh.001
v -0.009126 0.022811 0.071415
v 0.001278 0.022811 0.071415
v 0.001278 0.024414 0.071415
v -0.009126 0.024414 0.071415
v 0.001278 0.024414 0.062499
v -0.009126 0.024414 0.062499
v 0.001278 0.022811 0.062499
v -0.009126 0.022811 0.062499
vt 0.388725 0.742101
vt 0.295659 0.742597
vt 0.295582 0.728254
vt 0.388649 0.727758
vt 0.295156 0.648497
vt 0.388223 0.648000
vt 0.295080 0.634154
vt 0.388146 0.633657
vt 0.286683 0.728331
vt 0.286257 0.648573
vt 0.397424 0.647923
vt 0.397850 0.727681
vn 0.0000 -0.0000 1.0000
vn 0.0000 1.0000 0.0000
vn 0.0000 0.0000 -1.0000
vn 1.0000 0.0000 0.0000
vn -1.0000 0.0000 0.0000
usemtl scarfetex.001
s 1
f 9/15/6 10/16/6 11/17/6 12/18/6
f 12/18/7 11/17/7 13/19/7 14/20/7
f 14/20/8 13/19/8 15/21/8 16/22/8
f 10/23/9 15/24/9 13/19/9 11/17/9
f 16/25/10 9/26/10 12/18/10 14/20/10
o scarfe12_Mesh.001
v 0.008526 0.026836 0.081927
v 0.011382 0.026836 0.081927
v 0.011382 0.026836 0.074847
v 0.008526 0.026836 0.074847
v 0.011382 0.023082 0.074847
v 0.008526 0.023082 0.074847
v 0.011382 0.023082 0.081927
v 0.008526 0.023082 0.081927
vt 0.707487 0.616760
vt 0.707487 0.571546
vt 0.819570 0.571546
vt 0.819570 0.616760
vt 0.121706 0.641159
vt 0.166920 0.641159
vt 0.166920 0.700589
vt 0.121706 0.700589
vt 0.279004 0.700589
vt 0.279004 0.641159
vt 0.009623 0.700589
vt 0.009623 0.641159
vn 0.0000 1.0000 0.0000
vn 0.0000 0.0000 -1.0000
vn 1.0000 0.0000 0.0000
vn -1.0000 0.0000 0.0000
usemtl scarfetex.001
s 1
f 17/27/11 18/28/11 19/29/11 20/30/11
f 20/31/12 19/32/12 21/33/12 22/34/12
f 23/35/13 21/33/13 19/32/13 18/36/13
f 22/34/14 24/37/14 17/38/14 20/31/14
o scarfe13_Mesh.001
v 0.017384 0.026617 0.080808
v 0.032548 0.026617 0.080808
v 0.030224 0.026617 0.067976
v 0.019708 0.026617 0.067976
v 0.030224 0.023554 0.067976
v 0.019708 0.023554 0.067976
v 0.032548 0.023554 0.080808
v 0.017384 0.023554 0.080808
vt 0.660129 0.683204
vt 0.467381 0.683204
vt 0.496923 0.520110
vt 0.630587 0.520110
vt 0.496923 0.481170
vt 0.630587 0.481170
vt 0.429064 0.676263
vt 0.458606 0.513170
vt 0.668903 0.513170
vt 0.698445 0.676263
vn 0.0000 1.0000 0.0000
vn 0.0000 0.0000 -1.0000
vn 0.9840 0.0000 -0.1782
vn -0.9840 0.0000 -0.1782
usemtl scarfetex.001
s 1
f 25/39/15 26/40/15 27/41/15 28/42/15
f 28/42/16 27/41/16 29/43/16 30/44/16
f 31/45/17 29/46/17 27/41/17 26/40/17
f 30/47/18 32/48/18 25/39/18 28/42/18
o scarfe14_Mesh.001
v 0.000678 0.032810 0.094367
v 0.008539 0.032810 0.094086
v 0.008539 0.032810 0.084956
v 0.000678 0.032810 0.087510
v 0.008539 0.023537 0.084956
v 0.000678 0.023537 0.087510
vt 0.960741 0.256107
vt 0.985246 0.324743
vt 0.906637 0.356011
vt 0.901707 0.279588
vt 0.820893 0.361542
vt 0.815963 0.285119
vn 0.0000 1.0000 0.0000
vn -0.3090 0.0000 -0.9511
usemtl scarfetex.001
s 1
f 33/49/19 34/50/19 35/51/19 36/52/19
f 36/52/20 35/51/20 37/53/20 38/54/20
o scarfe15_Mesh.001
v 0.001531 0.023687 0.087093
v 0.006181 0.023687 0.087093
v 0.006181 0.024267 0.087093
v 0.001531 0.024267 0.087093
v 0.006181 0.024267 0.076194
v 0.001531 0.024267 0.076194
v 0.001531 0.023919 0.075846
v 0.006181 0.023919 0.075846
v 0.006181 0.023687 0.075846
v 0.001531 0.023687 0.075846
v 0.043693 0.023687 0.087093
v 0.043693 0.023687 0.075846
v 0.043693 0.024267 0.087093
v 0.043693 0.023919 0.075846
v 0.043693 0.024267 0.076194
v -0.010824 0.023687 0.075846
v -0.010824 0.023687 0.087093
v -0.010824 0.023919 0.075846
v -0.010824 0.024267 0.076194
v -0.010824 0.024267 0.087093
v 0.011400 0.023687 0.087093
v 0.011400 0.024267 0.087093
v 0.011400 0.024267 0.076194
v 0.011400 0.023919 0.075846
v 0.011400 0.023687 0.075846
v 0.031635 0.023687 0.087093
v 0.031635 0.024267 0.087093
v 0.031635 0.024267 0.076194
v 0.031635 0.023919 0.075846
v 0.031635 0.023687 0.075846
v 0.032545 0.023687 0.087093
v 0.038050 0.023687 0.087093
v 0.038050 0.024267 0.087093
v 0.032545 0.024267 0.087093
v 0.032545 0.024267 0.076194
v 0.038050 0.024267 0.076194
v 0.032545 0.023919 0.075846
v 0.038050 0.023919 0.075846
v 0.032545 0.023687 0.075846
v 0.038050 0.023687 0.075846
vt 0.565080 0.253658
vt 0.542099 0.253658
vt 0.542099 0.250790
vt 0.565080 0.250790
vt 0.460022 0.866557
vt 0.513471 0.866557
vt 0.513471 0.991809
vt 0.460022 0.991809
vt 0.493722 0.253658
vt 0.516701 0.253658
vt 0.516701 0.254805
vt 0.493722 0.254805
vt 0.560572 0.228670
vt 0.504998 0.228670
vt 0.560572 0.225802
vt 0.504998 0.227523
vt 0.506718 0.225802
vt 0.133899 0.228013
vt 0.078324 0.228013
vt 0.133899 0.226866
vt 0.132178 0.225145
vt 0.078324 0.225145
vt 0.460022 0.997469
vt 0.513471 0.997469
vt 0.516312 0.253658
vt 0.516312 0.250790
vt 0.573447 0.866557
vt 0.573447 0.991810
vt 0.573447 0.997469
vt 0.542488 0.253658
vt 0.542488 0.254805
vt 0.416329 0.253658
vt 0.416329 0.250790
vt 0.805984 0.866557
vt 0.805984 0.991809
vt 0.805984 0.997469
vt 0.642463 0.253658
vt 0.642463 0.254805
vt 0.411828 0.253658
vt 0.384627 0.253658
vt 0.384627 0.250790
vt 0.411828 0.250790
vt 0.816452 0.991809
vt 0.816452 0.866557
vt 0.879715 0.866557
vt 0.879715 0.991809
vt 0.816452 0.997469
vt 0.879715 0.997469
vt 0.646964 0.254805
vt 0.646964 0.253658
vt 0.674163 0.253658
vt 0.674163 0.254805
vt 0.356747 0.253658
vt 0.356747 0.250790
vt 0.944558 0.866557
vt 0.944558 0.991809
vt 0.944558 0.997469
vt 0.702041 0.253658
vt 0.702041 0.254805
vt 0.432680 0.253658
vt 0.432680 0.254805
vt 0.318044 0.997469
vt 0.318044 0.991810
vt 0.318044 0.866557
vt 0.626126 0.253658
vt 0.626126 0.250790
vn 0.0000 0.0000 1.0000
vn 0.0000 1.0000 0.0000
vn 0.0000 0.0000 -1.0000
vn 1.0000 0.0000 0.0000
vn -1.0000 0.0000 0.0000
vn 0.0000 0.7071 -0.7071
usemtl scarfetex.001
s 1
f 39/55/21 40/56/21 41/57/21 42/58/21
f 42/59/22 41/60/22 43/61/22 44/62/22
f 45/63/23 46/64/23 47/65/23 48/66/23
f 49/67/24 50/68/24 51/69/24
f 50/68/24 52/70/24 51/69/24
f 52/70/24 53/71/24 51/69/24
f 54/72/25 55/73/25 56/74/25
f 56/74/25 55/73/25 57/75/25
f 55/73/25 58/76/25 57/75/25
f 45/77/26 44/62/26 43/61/26 46/78/26
f 40/56/21 59/79/21 60/80/21 41/57/21
f 43/61/22 41/60/22 60/81/22 61/82/22
f 46/78/26 43/61/26 61/82/26 62/83/26
f 47/65/23 46/64/23 62/84/23 63/85/23
f 59/79/21 64/86/21 65/87/21 60/80/21
f 61/82/22 60/81/22 65/88/22 66/89/22
f 62/83/26 61/82/26 66/89/26 67/90/26
f 63/85/23 62/84/23 67/91/23 68/92/23
f 69/93/21 70/94/21 71/95/21 72/96/21
f 73/97/22 72/98/22 71/99/22 74/100/22
f 75/101/26 73/97/26 74/100/26 76/102/26
f 77/103/23 75/104/23 76/105/23 78/106/23
f 64/86/21 69/93/21 72/96/21 65/87/21
f 66/89/22 65/88/22 72/98/22 73/97/22
f 67/90/26 66/89/26 73/97/26 75/101/26
f 68/92/23 67/91/23 75/104/23 77/103/23
f 70/94/21 49/107/21 51/108/21 71/95/21
f 74/100/22 71/99/22 51/109/22 53/110/22
f 76/102/26 74/100/26 53/110/26 52/111/26
f 78/106/23 76/105/23 52/112/23 50/113/23
f 56/114/23 45/63/23 48/66/23 54/115/23
f 56/116/26 57/117/26 44/62/26 45/77/26
f 58/118/22 42/59/22 44/62/22 57/117/22
f 55/119/21 39/55/21 42/58/21 58/120/21
o scarfe1_Mesh.001
v 0.035793 0.022928 0.076465
v 0.040662 0.022928 0.076465
v 0.040662 0.024410 0.076465
v 0.035793 0.024410 0.076465
v 0.040662 0.024410 0.071516
v 0.035793 0.024410 0.071516
v 0.040662 0.022928 0.071516
v 0.035793 0.022928 0.071516
vt 0.120025 0.721267
vt 0.120025 0.789186
vt 0.099346 0.789186
vt 0.099347 0.721267
vt 0.030301 0.789186
vt 0.030301 0.721267
vt 0.009623 0.789186
vt 0.009623 0.721267
vt 0.099346 0.809864
vt 0.030301 0.809864
vt 0.030301 0.700589
vt 0.099347 0.700589
vn 0.0000 0.0000 1.0000
vn 0.0000 1.0000 0.0000
vn 0.0000 0.0000 -1.0000
vn 1.0000 0.0000 0.0000
vn -1.0000 0.0000 0.0000
usemtl scarfetex.001
s 1
f 79/121/27 80/122/27 81/123/27 82/124/27
f 82/124/28 81/123/28 83/125/28 84/126/28
f 84/126/29 83/125/29 85/127/29 86/128/29
f 80/129/30 85/130/30 83/125/30 81/123/30
f 86/131/31 79/132/31 82/124/31 84/126/31
o scarfe2_Mesh.001
v 0.004983 0.022928 0.071058
v 0.009851 0.022928 0.071058
v 0.009851 0.024410 0.071058
v 0.004983 0.024410 0.071058
v 0.009851 0.024410 0.066109
v 0.004983 0.024410 0.066109
v 0.009851 0.022928 0.066109
v 0.004983 0.022928 0.066109
vt 0.120025 0.721267
vt 0.120025 0.789186
vt 0.099346 0.789186
vt 0.099347 0.721267
vt 0.030301 0.789186
vt 0.030301 0.721267
vt 0.009623 0.789186
vt 0.009623 0.721267
vt 0.099346 0.809864
vt 0.030301 0.809864
vt 0.030301 0.700589
vt 0.099347 0.700589
vn 0.0000 0.0000 1.0000
vn 0.0000 1.0000 0.0000
vn 0.0000 0.0000 -1.0000
vn 1.0000 0.0000 0.0000
vn -1.0000 0.0000 0.0000
usemtl scarfetex.001
s 1
f 87/133/32 88/134/32 89/135/32 90/136/32
f 90/136/33 89/135/33 91/137/33 92/138/33
f 92/138/34 91/137/34 93/139/34 94/140/34
f 88/141/35 93/142/35 91/137/35 89/135/35
f 94/143/36 87/144/36 90/136/36 92/138/36
o scarfe3_Mesh.001
v 0.006144 0.022997 0.077225
v 0.008831 0.022997 0.077225
v 0.008831 0.024365 0.077225
v 0.006144 0.024365 0.077225
v 0.008831 0.024365 0.074494
v 0.006144 0.024365 0.074494
v 0.008831 0.022997 0.074494
v 0.006144 0.022997 0.074494
vt 0.541156 0.751170
vt 0.674604 0.751170
vt 0.674604 0.819137
vt 0.541156 0.819137
vt 0.504998 0.225802
vt 0.504998 0.092355
vt 0.640658 0.092355
vt 0.640658 0.225802
vt 0.808391 0.819747
vt 0.674944 0.819747
vt 0.674944 0.751781
vt 0.808391 0.751781
vt 0.676817 0.751170
vt 0.541156 0.751170
vt 0.541156 0.683204
vt 0.676817 0.683204
vt 0.814220 0.751781
vt 0.678560 0.751781
vt 0.678560 0.683814
vt 0.814220 0.683814
vn 0.0000 0.0000 1.0000
vn 0.0000 1.0000 0.0000
vn 0.0000 0.0000 -1.0000
vn 1.0000 0.0000 0.0000
vn -1.0000 0.0000 0.0000
usemtl scarfetex.001
s 1
f 95/145/37 96/146/37 97/147/37 98/148/37
f 98/149/38 97/150/38 99/151/38 100/152/38
f 100/153/39 99/154/39 101/155/39 102/156/39
f 96/157/40 101/158/40 99/159/40 97/160/40
f 102/161/41 95/162/41 98/163/41 100/164/41
o scarfe4_Mesh.001
v -0.015226 0.023291 0.125562
v 0.001549 0.023291 0.125562
v 0.001549 0.034019 0.125562
v -0.015226 0.034019 0.125562
v 0.001549 0.034019 0.078395
v -0.015226 0.034019 0.078395
v 0.001549 0.023291 0.078395
v -0.015226 0.023291 0.078395
vt 0.403753 0.683204
vt 0.540997 0.683204
vt 0.540997 0.770972
vt 0.403753 0.770972
vt 0.429724 0.481170
vt 0.433486 0.630582
vt 0.013385 0.641160
vt 0.009623 0.491747
vt 0.424854 0.386728
vt 0.572534 0.386728
vt 0.572534 0.481170
vt 0.424854 0.481170
vt 0.987765 0.481170
vt 0.987765 0.386728
vt 0.009623 0.481170
vt 0.009623 0.386728
vn 0.0000 0.0000 1.0000
vn 0.0000 1.0000 0.0000
vn 0.0000 0.0000 -1.0000
vn 1.0000 0.0000 0.0000
vn -1.0000 0.0000 0.0000
usemtl scarfetex.001
s 1
f 103/165/42 104/166/42 105/167/42 106/168/42
f 106/169/43 105/170/43 107/171/43 108/172/43
f 108/173/44 107/174/44 109/175/44 110/176/44
f 104/177/45 109/175/45 107/174/45 105/178/45
f 110/176/46 103/179/46 106/180/46 108/173/46
o scarfe5_Mesh.001
v 0.008285 0.033352 0.101063
v 0.051485 0.033352 0.101063
v 0.051485 0.033352 0.080646
v 0.008285 0.033352 0.080646
v 0.051485 0.022624 0.080646
v 0.008285 0.022624 0.080646
v 0.051485 0.022624 0.101063
v 0.008285 0.022624 0.101063
vt 0.503296 0.250790
vt 0.168057 0.250790
vt 0.168057 0.092355
vt 0.503296 0.092355
vt 0.168057 0.009105
vt 0.503296 0.009105
vt 0.009623 0.009105
vt 0.009623 0.092355
vt 0.661731 0.009105
vt 0.661731 0.092355
vn 0.0000 1.0000 0.0000
vn 0.0000 0.0000 -1.0000
vn 1.0000 0.0000 0.0000
vn -1.0000 0.0000 0.0000
usemtl scarfetex.001
s 1
f 111/181/47 112/182/47 113/183/47 114/184/47
f 114/184/48 113/183/48 115/185/48 116/186/48
f 117/187/49 115/185/49 113/183/49 112/188/49
f 116/186/50 118/189/50 111/190/50 114/184/50
o scarfe6_Mesh.001
v -0.010896 0.032810 0.078416
v -0.005003 0.032810 0.078416
v -0.005003 0.032810 0.075612
v -0.010896 0.032810 0.075612
v -0.011617 0.032810 0.075171
v -0.004282 0.032810 0.075171
v -0.004282 0.023537 0.075171
v -0.011617 0.023537 0.075171
v -0.005003 0.023537 0.078416
v -0.005003 0.023537 0.075612
v -0.010896 0.023537 0.075612
v -0.010896 0.023537 0.078416
v -0.003730 0.023537 0.075612
v -0.003730 0.023537 0.075171
v -0.004006 0.033086 0.075171
v -0.004006 0.033086 0.075612
v -0.011893 0.033086 0.075612
v -0.011893 0.033086 0.075171
v -0.012168 0.023537 0.075171
v -0.012168 0.023537 0.075612
vt 0.729182 0.380496
vt 0.729182 0.275511
vt 0.769319 0.275511
vt 0.769319 0.380496
vt 0.019872 0.211527
vt 0.019872 0.106545
vt 0.152587 0.106545
vt 0.152587 0.211527
vt 0.895512 0.562390
vt 0.935649 0.562390
vt 0.935649 0.695108
vt 0.895512 0.695108
vt 0.938903 0.561495
vt 0.979040 0.561495
vt 0.979040 0.694213
vt 0.938903 0.694213
vt 0.152405 0.092354
vt 0.152587 0.098657
vt 0.015928 0.102601
vt 0.015746 0.096298
vt 0.009623 0.215471
vt 0.009623 0.102601
vt 0.015928 0.215471
vt 0.152587 0.219415
vt 0.152405 0.225718
vt 0.015746 0.221774
vt 0.671984 0.009105
vt 0.671984 0.015411
vt 0.664096 0.015411
vt 0.664096 0.009105
vt 0.704199 0.676531
vt 0.836917 0.676531
vt 0.836917 0.684419
vt 0.700255 0.680475
vt 0.704199 0.571546
vt 0.700255 0.567602
vt 0.682832 0.009105
vt 0.682832 0.015411
vt 0.674944 0.015411
vt 0.674944 0.009105
vt 0.836917 0.571546
vt 0.836917 0.563658
vn 0.0000 1.0000 0.0000
vn 0.0000 0.0000 -1.0000
vn 1.0000 0.0000 0.0000
vn -1.0000 0.0000 0.0000
vn 0.9996 0.0289 0.0000
vn -0.9996 0.0288 0.0000
vn 0.0000 -1.0000 0.0000
vn 0.0000 0.0000 1.0000
usemtl scarfetex.001
s 1
f 119/191/51 120/192/51 121/193/51 122/194/51
f 123/195/52 124/196/52 125/197/52 126/198/52
f 127/199/53 128/200/53 121/201/53 120/202/53
f 129/203/54 130/204/54 119/205/54 122/206/54
f 131/207/55 132/208/55 133/209/55 134/210/55
f 135/211/51 134/212/51 133/209/51 136/213/51
f 137/214/56 138/215/56 135/216/56 136/213/56
f 128/217/57 125/218/57 132/219/57 131/220/57
f 125/197/52 124/196/52 133/209/52 132/208/52
f 121/221/58 128/222/58 131/223/58 134/224/58
f 122/225/58 121/221/58 134/224/58 135/226/58
f 124/196/52 123/195/52 136/213/52 133/209/52
f 126/227/57 129/228/57 138/229/57 137/230/57
f 129/231/58 122/225/58 135/226/58 138/232/58
f 123/195/52 126/198/52 137/214/52 136/213/52
o scarfe7_Mesh.001
v -0.014076 0.033159 0.099637
v 0.000398 0.033159 0.099637
v 0.000398 0.035623 0.099637
v -0.014076 0.035623 0.099637
v 0.000398 0.035623 0.092780
v -0.014076 0.035623 0.092780
v 0.000398 0.033159 0.092780
v -0.014076 0.033159 0.092780
vt 0.980724 0.009105
vt 0.980724 0.148568
vt 0.956982 0.148568
vt 0.956982 0.009105
vt 0.244655 0.742597
vt 0.384118 0.742597
vt 0.384118 0.808668
vt 0.244655 0.808668
vt 0.642401 0.231818
vt 0.642401 0.092355
vt 0.666143 0.092355
vt 0.666143 0.231818
vt 0.980724 0.214638
vt 0.956982 0.214638
vt 0.075693 0.247322
vt 0.009623 0.247322
vt 0.009623 0.223580
vt 0.075693 0.223580
vn 0.0000 0.0000 1.0000
vn 0.0000 1.0000 0.0000
vn 0.0000 0.0000 -1.0000
vn 1.0000 0.0000 0.0000
vn -1.0000 0.0000 0.0000
usemtl scarfetex.001
s 1
f 139/233/59 140/234/59 141/235/59 142/236/59
f 142/237/60 141/238/60 143/239/60 144/240/60
f 144/241/61 143/242/61 145/243/61 146/244/61
f 140/234/62 145/245/62 143/246/62 141/235/62
f 146/247/63 139/248/63 142/249/63 144/250/63
o scarfe8_Mesh.001
v 0.060134 0.032810 0.094367
v 0.060134 0.032810 0.087510
v 0.051065 0.032810 0.084956
v 0.051065 0.032810 0.094086
v 0.060134 0.023537 0.087510
v 0.051065 0.023537 0.084956
vt 0.138981 0.700586
vt 0.182268 0.714979
vt 0.179355 0.777592
vt 0.121715 0.758427
vt 0.243893 0.717845
vt 0.240981 0.780459
vn 0.0000 1.0000 0.0000
vn 0.2711 0.0000 -0.9626
usemtl scarfetex.001
s 1
f 147/251/64 148/252/64 149/253/64 150/254/64
f 148/252/65 151/255/65 152/256/65 149/253/65
o scarfe9_Mesh.001
v 0.037967 0.023624 0.079884
v 0.050109 0.023624 0.079884
v 0.050109 0.026513 0.079884
v 0.037967 0.026513 0.079884
v 0.050109 0.026513 0.067541
v 0.037967 0.026513 0.067541
v 0.050109 0.023624 0.067541
v 0.037967 0.023624 0.067541
vt 0.954530 0.051797
vt 0.955172 0.231860
vt 0.912328 0.232013
vt 0.911685 0.051950
vt 0.729279 0.232667
vt 0.728636 0.052603
vt 0.686434 0.232820
vt 0.685791 0.052756
vt 0.912481 0.274858
vt 0.729432 0.275511
vt 0.728483 0.009759
vt 0.911533 0.009105
vn 0.0000 0.0000 1.0000
vn 0.0000 1.0000 0.0000
vn 0.0000 0.0000 -1.0000
vn 1.0000 0.0000 0.0000
vn -1.0000 0.0000 0.0000
usemtl scarfetex.001
s 1
f 153/257/66 154/258/66 155/259/66 156/260/66
f 156/260/67 155/259/67 157/261/67 158/262/67
f 158/262/68 157/261/68 159/263/68 160/264/68
f 154/265/69 159/266/69 157/261/69 155/259/69
f 160/267/70 153/268/70 156/260/70 158/262/70
